<svg width="128" height="128" viewBox="0 0 128 128" fill="none" xmlns="http://www.w3.org/2000/svg">
<mask id="path-1-inside-1_2049_2818" fill="white">
<path d="M29.0795 23.9549C29.1097 23.5591 29.1075 23.1818 29.0898 22.8185C29.0307 21.6119 28.7501 20.598 28.4865 19.9024C28.3418 19.5162 27.9851 19.2481 27.5768 19.2171L17.735 18.4691C17.1295 18.4226 16.6015 18.043 16.3652 17.484C16.1274 16.9243 16.2234 16.2804 16.6111 15.8152C19.7967 11.9864 24.6585 9.92102 29.6259 10.3028H29.6266C31.1648 10.4209 33.1091 10.686 34.8414 11.6172C36.7673 12.4634 44.6308 15.5132 48.2211 15.5132H81.0384C82.951 15.5132 87.8394 13.0306 90.4719 11.4658C90.5221 11.4355 90.5782 11.4245 90.6307 11.4001C91.1247 11.1106 91.6357 10.8559 92.1659 10.6462C94.1692 9.85235 96.3365 9.94539 98.0054 10.1182H98.0061C102.958 10.6292 107.38 13.5216 109.834 17.854C110.134 18.382 110.113 19.0318 109.782 19.5398C109.45 20.0479 108.858 20.324 108.258 20.2657L98.4388 19.2533C98.0423 19.2016 97.6325 19.4113 97.4235 19.7628C96.9243 20.5943 96.2937 21.9427 96.1179 23.6485C95.9363 25.4163 96.2678 26.8414 96.578 27.7253C96.7139 28.1086 97.0543 28.3759 97.4656 28.418L107.243 29.4259C107.849 29.488 108.368 29.8852 108.588 30.4531C108.809 31.0217 108.691 31.6649 108.285 32.1197C105.352 35.4013 101.139 37.2622 96.7818 37.2622C96.2612 37.2622 95.7391 37.2356 95.2163 37.1817C91.5204 36.8007 88.6908 35.5845 86.8048 33.5693C86.3426 33.0745 85.9453 32.5185 85.5849 31.9314C83.685 30.5705 81.9976 29.7582 81.0384 29.7582H48.2233C47.208 29.7582 46.1727 29.8852 45.178 30.0809C42.688 30.572 40.4498 31.4995 39.4079 31.9728C38.6355 33.3345 37.6615 34.4916 36.4845 35.3688C34.5911 36.7792 32.1211 37.4904 29.1282 37.4904C28.6216 37.4904 28.1003 37.4704 27.5649 37.4305C22.6536 37.0569 18.181 34.3269 15.6016 30.1274C15.2826 29.6083 15.2819 28.9548 15.5994 28.4342C15.9162 27.9151 16.4819 27.6042 17.1058 27.6618L26.9078 28.4062C27.3427 28.4453 27.7016 28.2363 27.9039 27.8804C28.3662 27.0667 28.9458 25.7227 29.0795 23.9527V23.9549ZM30.7232 29.485C29.905 30.9213 28.3152 31.752 26.6626 31.6427L20.6857 31.1886C22.65 32.9172 25.1488 33.9976 27.8094 34.1992C29.8046 34.3535 32.5929 34.228 34.5461 32.771C36.5435 31.2838 37.8373 28.4704 38.0957 25.0515C38.4324 20.6253 36.6558 16.53 33.5691 14.6152C32.3323 13.848 30.6804 13.6353 29.3785 13.5379C26.6552 13.3281 23.9754 14.0511 21.7469 15.522L27.8212 15.9835C29.4804 16.1106 30.9322 17.1983 31.5185 18.7578C31.9763 19.9674 32.4866 21.8969 32.3123 24.2001C32.1329 26.569 31.3472 28.3818 30.7217 29.485H30.7232ZM104.83 16.6548C102.898 14.8117 100.386 13.625 97.6731 13.3459C97.1466 13.292 96.5602 13.2454 95.9592 13.2454C95.0767 13.2454 94.1626 13.3444 93.3584 13.6627C89.9816 14.9992 87.5041 18.7143 87.0493 23.1301C86.6978 26.5394 87.4716 29.5382 89.1722 31.3569C90.8367 33.1358 93.5578 33.7539 95.5486 33.9592C98.2003 34.2287 100.853 33.6128 103.094 32.2608L97.1318 31.6464C95.4858 31.4766 94.0688 30.3608 93.5194 28.8049C93.0985 27.6072 92.6488 25.6858 92.891 23.3191C93.1288 21.0204 93.9728 19.2127 94.6403 18.1006C95.4925 16.6732 97.1126 15.8691 98.7704 16.0308L104.829 16.6555L104.83 16.6548ZM81.0377 18.7564H48.2203C45.9674 18.7564 42.6895 17.8828 39.752 16.9162C40.9734 19.3656 41.5589 22.2794 41.3293 25.2966C41.2606 26.2005 41.1196 27.0585 40.9379 27.8863C42.9819 27.1863 45.6078 26.5195 48.2218 26.5195H81.037C81.8802 26.5195 82.8491 26.7735 83.9102 27.2276C83.6997 25.8431 83.6613 24.3588 83.8223 22.7978C84.0084 20.999 84.4743 19.288 85.1663 17.7321C83.6473 18.3251 82.1638 18.7571 81.0362 18.7571L81.0377 18.7564ZM40.9808 39.6857H85.9283C88.8023 39.6857 91.4481 41.0968 93.1849 43.5566C97.1362 49.114 100.864 56.9251 103.465 62.9522C103.8 61.7965 104.856 60.9437 106.118 60.9437H110.412C113.052 60.9437 115.339 62.8215 115.854 65.4097L116.056 66.428C116.234 67.317 116.025 68.2423 115.483 68.9674C114.942 69.6926 114.115 70.1563 113.214 70.2398L106.685 70.8453C106.852 71.2544 107.098 71.5963 107.434 71.8525L110.322 74.0914C111.686 75.1378 112.431 76.9056 112.259 78.7022L111.407 87.5257L112.185 113.145C112.226 114.458 111.737 115.738 110.846 116.658C110.006 117.523 108.896 118 107.72 118H99.799C97.6878 118 95.9695 116.197 95.9695 113.981V111.748H30.9366V113.981C30.9366 116.197 29.219 118 27.1079 118H19.1867C18.0097 118 16.8991 117.523 16.0602 116.656C15.1682 115.737 14.6816 114.456 14.7229 113.143L15.5005 87.5279L14.6483 78.7037C14.477 76.9063 15.2213 75.1378 16.5919 74.087L19.4651 71.8584C19.8166 71.5904 20.0684 71.2426 20.2338 70.8268L13.9032 70.2398C13.0016 70.1563 12.1746 69.6919 11.634 68.966C11.0928 68.2408 10.8845 67.3148 11.0618 66.4287L11.2634 65.4104C11.7788 62.8222 14.0657 60.9444 16.7048 60.9444H20.9996C22.1537 60.9444 23.1447 61.654 23.5612 62.6598C26.1944 56.5692 29.8231 49.0424 33.7264 43.5529C35.461 41.0976 38.106 39.6864 40.9793 39.6864L40.9808 39.6857ZM85.9283 42.9289H40.9808C39.1746 42.9289 37.4954 43.8401 36.3744 45.4277C30.3902 53.8414 24.849 67.8391 23.2931 71.9286C22.9202 72.9232 22.28 73.7909 21.4448 74.4289L18.5738 76.6553C18.0842 77.0311 17.8125 77.7119 17.8782 78.395L20.6481 107.071C20.7249 107.892 21.3119 108.507 22.0142 108.507H104.897C105.599 108.507 106.186 107.892 106.262 107.076L109.032 78.3928C109.098 77.7127 108.826 77.0319 108.342 76.6604L105.456 74.423C104.631 73.7909 103.991 72.924 103.614 71.9226C102.063 67.8421 96.5263 53.8525 90.5391 45.4322C89.4152 43.8401 87.7353 42.9296 85.9283 42.9296V42.9289ZM106.587 67.5991L112.915 67.0121L112.674 66.0433C112.46 64.9666 111.509 64.1868 110.413 64.1868H106.587V67.5991ZM107.722 114.758C108.095 114.758 108.36 114.564 108.518 114.402C108.803 114.108 108.959 113.687 108.944 113.246L108.829 109.416C108.017 110.819 106.565 111.749 104.896 111.749H99.2134V113.981C99.2134 114.395 99.4881 114.758 99.8005 114.758H107.722ZM27.6957 113.981V111.749H22.0134C20.3461 111.749 18.8936 110.819 18.0813 109.414L17.9654 113.244C17.9513 113.687 18.1071 114.108 18.3907 114.4C18.5487 114.564 18.8153 114.758 19.1889 114.758H27.1101C27.4224 114.758 27.6957 114.395 27.6957 113.981ZM14.2437 67.0616L20.5329 67.6095V64.1861H16.7063C15.6105 64.1861 14.6594 64.9659 14.4467 66.041L14.2444 67.0616H14.2437ZM19.5722 81.907C19.3049 79.3587 19.9037 77.3139 21.3518 75.8312C22.5828 74.5685 24.4037 74.0589 26.2018 74.4665H26.2025L34.3179 76.3001C36.579 76.8111 39.0387 78.9783 41.6298 82.7414C42.2294 83.6113 42.2693 84.7647 41.7303 85.6811C41.2518 86.4926 40.4173 86.9719 39.5083 86.9719C39.4249 86.9719 39.3407 86.9689 39.2558 86.96L22.8959 85.3503C21.1583 85.1782 19.7612 83.7302 19.5722 81.907ZM22.7976 81.5717C22.8301 81.8944 23.0354 82.1056 23.2134 82.1226L38.2582 83.6039C36.5037 81.2572 34.8023 79.7345 33.6024 79.4628L25.487 77.6292C25.3179 77.5916 25.1503 77.5724 24.9864 77.5724C24.4746 77.5724 24.005 77.7548 23.672 78.0959C22.918 78.8676 22.6322 80.004 22.7969 81.5717H22.7976ZM57.3968 100.852L27.9541 99.7438C27.0894 99.7068 26.3052 100.408 26.2727 101.303C26.2387 102.198 26.938 102.95 27.8315 102.984L57.2743 104.092C57.2957 104.093 57.3156 104.093 57.3363 104.093C58.2039 104.093 58.9224 103.407 58.9557 102.533C58.9896 101.638 58.2903 100.885 57.3968 100.851V100.852ZM83.4014 44.2145C85.9608 44.2145 88.2943 46.0207 89.4898 48.9286L96.9376 66.6621C96.9398 66.6665 96.9405 66.6694 96.9428 66.6739C97.3688 67.7114 97.2544 68.9667 96.6481 69.8698C96.1534 70.609 95.3928 71.0328 94.5621 71.0328H32.3456C31.5156 71.0328 30.7557 70.6097 30.261 69.8706C29.6547 68.9682 29.5388 67.7129 29.9656 66.6746L37.4252 48.9168C38.6148 46.0207 40.9475 44.2145 43.5084 44.2145H83.4007H83.4014ZM40.4203 50.1611L33.0146 67.7896H93.8945L86.4954 50.1722C85.805 48.493 84.6206 47.4562 83.4014 47.4562H43.5091C42.2893 47.4562 41.1056 48.493 40.4203 50.1604V50.1611ZM92.5919 76.3001L100.706 74.4665H100.707C102.513 74.0538 104.325 74.5677 105.559 75.8326C107.004 77.3139 107.603 79.3579 107.338 81.9084C107.146 83.7316 105.749 85.1782 104.015 85.3503L87.6533 86.96C87.5691 86.9674 87.4842 86.9719 87.4 86.9719C86.4925 86.9719 85.6573 86.4934 85.1788 85.6818C84.6398 84.7669 84.6782 83.6127 85.2778 82.7414C87.8711 78.9783 90.3316 76.8111 92.5904 76.3001H92.5919ZM101.422 77.6292L93.3082 79.4628C92.109 79.7338 90.4076 81.2572 88.6509 83.6039L103.698 82.1226C103.9 82.1027 104.083 81.8605 104.113 81.5717C104.277 80.004 103.99 78.8676 103.239 78.0967C102.799 77.6477 102.121 77.4705 101.422 77.6292ZM48.1583 85.9159L46.7051 82.1831C46.3831 81.3568 46.5057 80.4286 47.0322 79.7013C47.634 78.8728 48.6316 78.4186 49.7289 78.4747L76.9874 78.4725C78.0374 78.4068 79.0395 78.8853 79.6317 79.7013C80.1582 80.4286 80.2823 81.3561 79.9588 82.1839L78.5064 85.9152C77.5228 88.4421 74.8903 90.2247 71.8014 90.458C71.7615 90.461 71.7209 90.4624 71.6803 90.4624H54.9844C54.9445 90.4624 54.9031 90.4617 54.8633 90.458C51.7729 90.2247 49.1412 88.4421 48.1583 85.9152V85.9159ZM75.4854 84.7389L76.661 81.7157H50.0022L51.1792 84.7396C51.6984 86.0747 53.2505 87.0664 55.0486 87.22H71.6146C73.4141 87.0656 74.9648 86.0747 75.4854 84.7381V84.7389ZM100.324 101.303C100.29 100.408 99.5664 99.6854 98.6426 99.7438L69.1999 100.852C68.3057 100.886 67.6071 101.639 67.6411 102.534C67.6736 103.408 68.3928 104.094 69.2604 104.094C69.2804 104.094 69.3018 104.094 69.3225 104.093L98.7652 102.985C99.6594 102.951 100.358 102.198 100.324 101.303V101.303Z"/>
</mask>
<path d="M29.0795 23.9549C29.1097 23.5591 29.1075 23.1818 29.0898 22.8185C29.0307 21.6119 28.7501 20.598 28.4865 19.9024C28.3418 19.5162 27.9851 19.2481 27.5768 19.2171L17.735 18.4691C17.1295 18.4226 16.6015 18.043 16.3652 17.484C16.1274 16.9243 16.2234 16.2804 16.6111 15.8152C19.7967 11.9864 24.6585 9.92102 29.6259 10.3028H29.6266C31.1648 10.4209 33.1091 10.686 34.8414 11.6172C36.7673 12.4634 44.6308 15.5132 48.2211 15.5132H81.0384C82.951 15.5132 87.8394 13.0306 90.4719 11.4658C90.5221 11.4355 90.5782 11.4245 90.6307 11.4001C91.1247 11.1106 91.6357 10.8559 92.1659 10.6462C94.1692 9.85235 96.3365 9.94539 98.0054 10.1182H98.0061C102.958 10.6292 107.38 13.5216 109.834 17.854C110.134 18.382 110.113 19.0318 109.782 19.5398C109.45 20.0479 108.858 20.324 108.258 20.2657L98.4388 19.2533C98.0423 19.2016 97.6325 19.4113 97.4235 19.7628C96.9243 20.5943 96.2937 21.9427 96.1179 23.6485C95.9363 25.4163 96.2678 26.8414 96.578 27.7253C96.7139 28.1086 97.0543 28.3759 97.4656 28.418L107.243 29.4259C107.849 29.488 108.368 29.8852 108.588 30.4531C108.809 31.0217 108.691 31.6649 108.285 32.1197C105.352 35.4013 101.139 37.2622 96.7818 37.2622C96.2612 37.2622 95.7391 37.2356 95.2163 37.1817C91.5204 36.8007 88.6908 35.5845 86.8048 33.5693C86.3426 33.0745 85.9453 32.5185 85.5849 31.9314C83.685 30.5705 81.9976 29.7582 81.0384 29.7582H48.2233C47.208 29.7582 46.1727 29.8852 45.178 30.0809C42.688 30.572 40.4498 31.4995 39.4079 31.9728C38.6355 33.3345 37.6615 34.4916 36.4845 35.3688C34.5911 36.7792 32.1211 37.4904 29.1282 37.4904C28.6216 37.4904 28.1003 37.4704 27.5649 37.4305C22.6536 37.0569 18.181 34.3269 15.6016 30.1274C15.2826 29.6083 15.2819 28.9548 15.5994 28.4342C15.9162 27.9151 16.4819 27.6042 17.1058 27.6618L26.9078 28.4062C27.3427 28.4453 27.7016 28.2363 27.9039 27.8804C28.3662 27.0667 28.9458 25.7227 29.0795 23.9527V23.9549ZM30.7232 29.485C29.905 30.9213 28.3152 31.752 26.6626 31.6427L20.6857 31.1886C22.65 32.9172 25.1488 33.9976 27.8094 34.1992C29.8046 34.3535 32.5929 34.228 34.5461 32.771C36.5435 31.2838 37.8373 28.4704 38.0957 25.0515C38.4324 20.6253 36.6558 16.53 33.5691 14.6152C32.3323 13.848 30.6804 13.6353 29.3785 13.5379C26.6552 13.3281 23.9754 14.0511 21.7469 15.522L27.8212 15.9835C29.4804 16.1106 30.9322 17.1983 31.5185 18.7578C31.9763 19.9674 32.4866 21.8969 32.3123 24.2001C32.1329 26.569 31.3472 28.3818 30.7217 29.485H30.7232ZM104.83 16.6548C102.898 14.8117 100.386 13.625 97.6731 13.3459C97.1466 13.292 96.5602 13.2454 95.9592 13.2454C95.0767 13.2454 94.1626 13.3444 93.3584 13.6627C89.9816 14.9992 87.5041 18.7143 87.0493 23.1301C86.6978 26.5394 87.4716 29.5382 89.1722 31.3569C90.8367 33.1358 93.5578 33.7539 95.5486 33.9592C98.2003 34.2287 100.853 33.6128 103.094 32.2608L97.1318 31.6464C95.4858 31.4766 94.0688 30.3608 93.5194 28.8049C93.0985 27.6072 92.6488 25.6858 92.891 23.3191C93.1288 21.0204 93.9728 19.2127 94.6403 18.1006C95.4925 16.6732 97.1126 15.8691 98.7704 16.0308L104.829 16.6555L104.83 16.6548ZM81.0377 18.7564H48.2203C45.9674 18.7564 42.6895 17.8828 39.752 16.9162C40.9734 19.3656 41.5589 22.2794 41.3293 25.2966C41.2606 26.2005 41.1196 27.0585 40.9379 27.8863C42.9819 27.1863 45.6078 26.5195 48.2218 26.5195H81.037C81.8802 26.5195 82.8491 26.7735 83.9102 27.2276C83.6997 25.8431 83.6613 24.3588 83.8223 22.7978C84.0084 20.999 84.4743 19.288 85.1663 17.7321C83.6473 18.3251 82.1638 18.7571 81.0362 18.7571L81.0377 18.7564ZM40.9808 39.6857H85.9283C88.8023 39.6857 91.4481 41.0968 93.1849 43.5566C97.1362 49.114 100.864 56.9251 103.465 62.9522C103.8 61.7965 104.856 60.9437 106.118 60.9437H110.412C113.052 60.9437 115.339 62.8215 115.854 65.4097L116.056 66.428C116.234 67.317 116.025 68.2423 115.483 68.9674C114.942 69.6926 114.115 70.1563 113.214 70.2398L106.685 70.8453C106.852 71.2544 107.098 71.5963 107.434 71.8525L110.322 74.0914C111.686 75.1378 112.431 76.9056 112.259 78.7022L111.407 87.5257L112.185 113.145C112.226 114.458 111.737 115.738 110.846 116.658C110.006 117.523 108.896 118 107.72 118H99.799C97.6878 118 95.9695 116.197 95.9695 113.981V111.748H30.9366V113.981C30.9366 116.197 29.219 118 27.1079 118H19.1867C18.0097 118 16.8991 117.523 16.0602 116.656C15.1682 115.737 14.6816 114.456 14.7229 113.143L15.5005 87.5279L14.6483 78.7037C14.477 76.9063 15.2213 75.1378 16.5919 74.087L19.4651 71.8584C19.8166 71.5904 20.0684 71.2426 20.2338 70.8268L13.9032 70.2398C13.0016 70.1563 12.1746 69.6919 11.634 68.966C11.0928 68.2408 10.8845 67.3148 11.0618 66.4287L11.2634 65.4104C11.7788 62.8222 14.0657 60.9444 16.7048 60.9444H20.9996C22.1537 60.9444 23.1447 61.654 23.5612 62.6598C26.1944 56.5692 29.8231 49.0424 33.7264 43.5529C35.461 41.0976 38.106 39.6864 40.9793 39.6864L40.9808 39.6857ZM85.9283 42.9289H40.9808C39.1746 42.9289 37.4954 43.8401 36.3744 45.4277C30.3902 53.8414 24.849 67.8391 23.2931 71.9286C22.9202 72.9232 22.28 73.7909 21.4448 74.4289L18.5738 76.6553C18.0842 77.0311 17.8125 77.7119 17.8782 78.395L20.6481 107.071C20.7249 107.892 21.3119 108.507 22.0142 108.507H104.897C105.599 108.507 106.186 107.892 106.262 107.076L109.032 78.3928C109.098 77.7127 108.826 77.0319 108.342 76.6604L105.456 74.423C104.631 73.7909 103.991 72.924 103.614 71.9226C102.063 67.8421 96.5263 53.8525 90.5391 45.4322C89.4152 43.8401 87.7353 42.9296 85.9283 42.9296V42.9289ZM106.587 67.5991L112.915 67.0121L112.674 66.0433C112.46 64.9666 111.509 64.1868 110.413 64.1868H106.587V67.5991ZM107.722 114.758C108.095 114.758 108.36 114.564 108.518 114.402C108.803 114.108 108.959 113.687 108.944 113.246L108.829 109.416C108.017 110.819 106.565 111.749 104.896 111.749H99.2134V113.981C99.2134 114.395 99.4881 114.758 99.8005 114.758H107.722ZM27.6957 113.981V111.749H22.0134C20.3461 111.749 18.8936 110.819 18.0813 109.414L17.9654 113.244C17.9513 113.687 18.1071 114.108 18.3907 114.4C18.5487 114.564 18.8153 114.758 19.1889 114.758H27.1101C27.4224 114.758 27.6957 114.395 27.6957 113.981ZM14.2437 67.0616L20.5329 67.6095V64.1861H16.7063C15.6105 64.1861 14.6594 64.9659 14.4467 66.041L14.2444 67.0616H14.2437ZM19.5722 81.907C19.3049 79.3587 19.9037 77.3139 21.3518 75.8312C22.5828 74.5685 24.4037 74.0589 26.2018 74.4665H26.2025L34.3179 76.3001C36.579 76.8111 39.0387 78.9783 41.6298 82.7414C42.2294 83.6113 42.2693 84.7647 41.7303 85.6811C41.2518 86.4926 40.4173 86.9719 39.5083 86.9719C39.4249 86.9719 39.3407 86.9689 39.2558 86.96L22.8959 85.3503C21.1583 85.1782 19.7612 83.7302 19.5722 81.907ZM22.7976 81.5717C22.8301 81.8944 23.0354 82.1056 23.2134 82.1226L38.2582 83.6039C36.5037 81.2572 34.8023 79.7345 33.6024 79.4628L25.487 77.6292C25.3179 77.5916 25.1503 77.5724 24.9864 77.5724C24.4746 77.5724 24.005 77.7548 23.672 78.0959C22.918 78.8676 22.6322 80.004 22.7969 81.5717H22.7976ZM57.3968 100.852L27.9541 99.7438C27.0894 99.7068 26.3052 100.408 26.2727 101.303C26.2387 102.198 26.938 102.95 27.8315 102.984L57.2743 104.092C57.2957 104.093 57.3156 104.093 57.3363 104.093C58.2039 104.093 58.9224 103.407 58.9557 102.533C58.9896 101.638 58.2903 100.885 57.3968 100.851V100.852ZM83.4014 44.2145C85.9608 44.2145 88.2943 46.0207 89.4898 48.9286L96.9376 66.6621C96.9398 66.6665 96.9405 66.6694 96.9428 66.6739C97.3688 67.7114 97.2544 68.9667 96.6481 69.8698C96.1534 70.609 95.3928 71.0328 94.5621 71.0328H32.3456C31.5156 71.0328 30.7557 70.6097 30.261 69.8706C29.6547 68.9682 29.5388 67.7129 29.9656 66.6746L37.4252 48.9168C38.6148 46.0207 40.9475 44.2145 43.5084 44.2145H83.4007H83.4014ZM40.4203 50.1611L33.0146 67.7896H93.8945L86.4954 50.1722C85.805 48.493 84.6206 47.4562 83.4014 47.4562H43.5091C42.2893 47.4562 41.1056 48.493 40.4203 50.1604V50.1611ZM92.5919 76.3001L100.706 74.4665H100.707C102.513 74.0538 104.325 74.5677 105.559 75.8326C107.004 77.3139 107.603 79.3579 107.338 81.9084C107.146 83.7316 105.749 85.1782 104.015 85.3503L87.6533 86.96C87.5691 86.9674 87.4842 86.9719 87.4 86.9719C86.4925 86.9719 85.6573 86.4934 85.1788 85.6818C84.6398 84.7669 84.6782 83.6127 85.2778 82.7414C87.8711 78.9783 90.3316 76.8111 92.5904 76.3001H92.5919ZM101.422 77.6292L93.3082 79.4628C92.109 79.7338 90.4076 81.2572 88.6509 83.6039L103.698 82.1226C103.9 82.1027 104.083 81.8605 104.113 81.5717C104.277 80.004 103.99 78.8676 103.239 78.0967C102.799 77.6477 102.121 77.4705 101.422 77.6292ZM48.1583 85.9159L46.7051 82.1831C46.3831 81.3568 46.5057 80.4286 47.0322 79.7013C47.634 78.8728 48.6316 78.4186 49.7289 78.4747L76.9874 78.4725C78.0374 78.4068 79.0395 78.8853 79.6317 79.7013C80.1582 80.4286 80.2823 81.3561 79.9588 82.1839L78.5064 85.9152C77.5228 88.4421 74.8903 90.2247 71.8014 90.458C71.7615 90.461 71.7209 90.4624 71.6803 90.4624H54.9844C54.9445 90.4624 54.9031 90.4617 54.8633 90.458C51.7729 90.2247 49.1412 88.4421 48.1583 85.9152V85.9159ZM75.4854 84.7389L76.661 81.7157H50.0022L51.1792 84.7396C51.6984 86.0747 53.2505 87.0664 55.0486 87.22H71.6146C73.4141 87.0656 74.9648 86.0747 75.4854 84.7381V84.7389ZM100.324 101.303C100.29 100.408 99.5664 99.6854 98.6426 99.7438L69.1999 100.852C68.3057 100.886 67.6071 101.639 67.6411 102.534C67.6736 103.408 68.3928 104.094 69.2604 104.094C69.2804 104.094 69.3018 104.094 69.3225 104.093L98.7652 102.985C99.6594 102.951 100.358 102.198 100.324 101.303V101.303Z" fill="#B89A0F" stroke="#262523" stroke-linejoin="round" mask="url(#path-1-inside-1_2049_2818)"/>
</svg>
