<svg width="128" height="128" viewBox="0 0 128 128" fill="none" xmlns="http://www.w3.org/2000/svg">
<mask id="path-1-inside-1_2049_2791" fill="white">
<path fill-rule="evenodd" clip-rule="evenodd" d="M70.1016 33.3633L82.8186 38.927C83.0241 39.0165 83.244 39.0613 83.4631 39.0613C83.6821 39.0613 83.8892 39.0189 84.0899 38.9342L113.739 26.3971C116.485 25.2545 118.862 21.6195 117.697 18.8185C116.45 15.8239 112.064 15.4066 109.564 16.4476L101.57 19.9667L82.4859 12.121C82.0549 11.9435 81.5696 11.9626 81.1546 12.1697L76.3857 14.5542C75.8708 14.8116 75.5333 15.3234 75.499 15.8975C75.4646 16.4716 75.7396 17.0202 76.2202 17.3368L88.7676 25.6023L80.0751 29.4285L75.7796 28.7128C75.5214 28.6696 75.2559 28.6904 75.0064 28.7736L70.2375 30.3632C69.6059 30.5735 69.1693 31.1516 69.1389 31.8169C69.1085 32.4822 69.4915 33.0963 70.1016 33.3633ZM80.0191 32.6821C80.3286 32.7332 80.6452 32.694 80.9323 32.5677L110.83 19.4062C112.187 18.8409 114.372 19.2055 114.726 20.0555C115.099 20.9518 113.832 22.8741 112.495 23.4306L83.4742 35.7022L75.2247 32.0927L75.6453 31.9528L80.0191 32.6821ZM92.521 24.2222L80.3198 16.1846L81.939 15.3754L99.045 22.4079L93.1159 24.9355C92.996 24.654 92.7953 24.4029 92.521 24.2222Z"/>
<path fill-rule="evenodd" clip-rule="evenodd" d="M106.381 74.2615H90.7507L90.7499 74.2607C89.0003 74.2607 87.5762 72.8375 87.5762 71.0871V55.0414C87.5762 53.2911 88.9995 51.867 90.7499 51.867H94.9542C96.8069 51.867 98.5069 52.8001 99.5016 54.3633L109.059 69.3831C109.681 70.3611 109.721 71.5997 109.164 72.6152C108.606 73.6307 107.54 74.2615 106.381 74.2615ZM106.381 71.0439L96.7869 56.0913L96.7877 56.0905C96.3863 55.4612 95.701 55.0846 94.955 55.0846H90.7507L90.7938 71.0871L106.381 71.0439Z"/>
<path fill-rule="evenodd" clip-rule="evenodd" d="M67.2478 74.2617H84.1012C85.8691 74.2617 87.3068 72.8232 87.3068 71.056V55.0743C87.3068 53.3064 85.8683 51.8687 84.1012 51.8687H67.2478C65.4799 51.8687 64.0422 53.3072 64.0422 55.0743V71.056C64.0422 72.824 65.4807 74.2617 67.2478 74.2617ZM84.09 71.044L67.2598 71.056L67.2478 55.0855L84.09 55.0735V71.044Z"/>
<path fill-rule="evenodd" clip-rule="evenodd" d="M59.6955 74.2617H42.8422C41.0751 74.2617 39.6366 72.824 39.6366 71.056V55.0743C39.6366 53.3072 41.0743 51.8687 42.8422 51.8687H59.6955C61.4627 51.8687 62.9011 53.3064 62.9011 55.0743V71.056C62.9011 72.8232 61.4635 74.2617 59.6955 74.2617ZM59.6843 71.044V55.0735L42.8422 55.0855L42.8542 71.056L59.6843 71.044Z"/>
<path fill-rule="evenodd" clip-rule="evenodd" d="M19.3074 74.2617H36.1615C37.9294 74.2617 39.3671 72.8232 39.3671 71.056V55.0743C39.3671 53.3064 37.9294 51.8687 36.1615 51.8687H19.3074C17.5394 51.8687 16.1018 53.3072 16.1018 55.0743V71.056C16.1018 72.824 17.5402 74.2617 19.3074 74.2617ZM36.1495 71.044L19.3194 71.056L19.3074 55.0855L36.1495 55.0735V71.044Z"/>
<path d="M107.625 89.2134V77.0106C107.625 76.1222 108.345 75.4018 109.234 75.4018C110.122 75.4018 110.842 76.1222 110.842 77.0106V89.2134C110.842 90.1018 110.122 90.8222 109.234 90.8222C108.345 90.8222 107.625 90.1018 107.625 89.2134Z"/>
<path d="M98.7739 78.0174H93.5437C92.6553 78.0174 91.9349 78.7378 91.9349 79.6262C91.9349 80.5145 92.6553 81.235 93.5437 81.235H98.7739C99.6623 81.235 100.383 80.5145 100.383 79.6262C100.383 78.7378 99.6623 78.0174 98.7739 78.0174Z"/>
<path d="M68.2657 78.0174H73.496C74.3843 78.0174 75.1048 78.7378 75.1048 79.6262C75.1048 80.5145 74.3843 81.235 73.496 81.235H68.2657C67.3774 81.235 66.6569 80.5145 66.6569 79.6262C66.6569 78.7378 67.3774 78.0174 68.2657 78.0174Z"/>
<path fill-rule="evenodd" clip-rule="evenodd" d="M22.2764 102.84C22.1268 104.437 20.8123 105.641 19.2187 105.641L19.2179 105.639C14.1212 105.639 10 101.519 10 96.4531V54.9512C10 49.8864 14.1212 45.7653 19.1867 45.7653H95.8434C98.9331 45.7653 101.8 47.3005 103.514 49.8713L115.956 68.5437C117.172 70.37 117.815 72.4945 117.815 74.6879V94.5597C117.815 100.67 112.845 105.641 106.735 105.641H102.587C100.94 105.641 99.5695 104.392 99.3992 102.736C98.742 96.3556 93.1935 91.5444 86.9781 91.5444C80.7628 91.5444 75.4438 96.1797 74.6058 102.327C74.3484 104.217 72.7107 105.641 70.7973 105.641H50.9894C49.0744 105.641 47.4368 104.216 47.1809 102.325C46.3429 96.1405 41.2662 91.4764 34.7582 91.4764C28.2502 91.4764 22.8841 96.362 22.2764 102.84ZM19.1867 48.9837C15.8955 48.9837 13.2176 51.6616 13.2176 54.9528V96.4547C13.2176 99.7107 15.8403 102.367 19.0835 102.422C19.9015 94.339 26.9101 88.2588 34.7574 88.2588C42.6048 88.2588 49.3158 94.1207 50.3689 101.894C50.4097 102.195 50.676 102.423 50.9886 102.423H62.2983V77.0107C62.2983 76.1223 63.0187 75.4019 63.9071 75.4019C64.7954 75.4019 65.5159 76.1223 65.5159 77.0107V102.423H70.7965C71.1091 102.423 71.3754 102.195 71.417 101.893C72.4717 94.1591 79.1612 88.3267 86.9773 88.3267C87.0998 88.3267 87.2202 88.3344 87.3404 88.342C87.4189 88.3469 87.4973 88.3519 87.5762 88.3547V77.0107C87.5762 76.1223 88.2967 75.4019 89.1851 75.4019C90.0734 75.4019 90.7939 76.1223 90.7939 77.0107V88.8065C97.0844 90.3673 101.908 95.6879 102.599 102.406L106.735 102.423C111.07 102.423 114.597 98.8951 114.597 94.5597V74.6879C114.597 73.131 114.142 71.6238 113.278 70.3276L100.836 51.656C99.7207 49.9832 97.8544 48.9837 95.8434 48.9837H19.1867Z"/>
<path fill-rule="evenodd" clip-rule="evenodd" d="M87.0061 98.5009C83.7157 98.5009 81.0394 101.178 81.0394 104.468C81.0394 107.757 83.7157 110.434 87.0061 110.434C90.2965 110.434 92.9736 107.757 92.9736 104.468C92.9736 101.178 90.2965 98.5009 87.0061 98.5009ZM87.0061 107.217C85.4901 107.217 84.257 105.983 84.257 104.468C84.257 102.952 85.4901 101.719 87.0061 101.719C88.5222 101.719 89.756 102.952 89.756 104.468C89.756 105.984 88.5222 107.217 87.0061 107.217Z"/>
<path fill-rule="evenodd" clip-rule="evenodd" d="M75.3734 104.468C75.3734 98.0532 80.5917 92.8349 87.0061 92.8349C93.4206 92.8349 98.6388 98.0532 98.6388 104.468C98.6388 110.882 93.4206 116.1 87.0061 116.1C80.5917 116.1 75.3734 110.882 75.3734 104.468ZM87.0061 96.0526C82.366 96.0526 78.5911 99.8275 78.5911 104.468C78.5911 109.108 82.366 112.883 87.0061 112.883C91.6462 112.883 95.4212 109.108 95.4212 104.468C95.4212 99.8275 91.6462 96.0526 87.0061 96.0526Z"/>
<path d="M58.7208 41.9647C58.5097 42.0575 58.2898 42.1015 58.0731 42.1015C57.455 42.1015 56.8649 41.7425 56.6003 41.1403C56.242 40.3271 56.6106 39.378 57.4238 39.0198L66.6809 34.945C67.4941 34.5868 68.444 34.9562 68.8022 35.7694C69.1597 36.5826 68.791 37.5317 67.9778 37.8899L58.7208 41.9647Z"/>
<path d="M58.0731 36.9751C58.2898 36.9751 58.5097 36.9311 58.7208 36.8384L67.9778 32.7636C68.791 32.4053 69.1597 31.4562 68.8022 30.643C68.444 29.8298 67.4941 29.4604 66.6809 29.8186L57.4238 33.8934C56.6106 34.2516 56.242 35.2008 56.6003 36.014C56.8649 36.6161 57.455 36.9751 58.0731 36.9751Z"/>
<path d="M65.9677 40.7285L75.2239 36.6537C76.0379 36.2947 76.9855 36.6649 77.3445 37.4781C77.7019 38.2913 77.3333 39.2404 76.5201 39.5987L67.263 43.6735C67.0527 43.7662 66.8329 43.8102 66.6162 43.8102C65.9973 43.8102 65.4079 43.4512 65.1425 42.8491C64.7851 42.0359 65.1545 41.0867 65.9677 40.7285Z"/>
<path fill-rule="evenodd" clip-rule="evenodd" d="M37.5952 29.8074H50.2426C51.8554 29.8074 53.377 29.0989 54.4165 27.8636C55.4552 26.629 55.891 24.9986 55.6119 23.3906C55.2993 21.5866 54.0343 20.0258 52.312 19.3182C51.422 18.9519 50.4961 18.8264 49.5797 18.9431C48.3195 17.3111 46.3781 16.338 44.2623 16.338C41.738 16.338 39.5047 17.7149 38.3516 19.8419C36.5909 19.5085 34.727 20.1737 33.57 21.5595C32.6121 22.7061 32.2162 24.2165 32.4849 25.7046C32.9143 28.0818 35.0636 29.8074 37.5952 29.8074ZM39.8773 23.4041C40.3626 23.2074 40.7217 22.7868 40.84 22.2767C41.211 20.6751 42.6183 19.5564 44.2615 19.5564C45.5977 19.5564 46.8019 20.3025 47.404 21.5035C47.7766 22.2471 48.6546 22.5838 49.4302 22.2799C49.9883 22.0608 50.5304 22.0656 51.0878 22.2951C51.7866 22.5822 52.3176 23.2282 52.4407 23.9415C52.559 24.6211 52.3855 25.2792 51.9529 25.7926C51.5267 26.2995 50.9031 26.5906 50.241 26.5906H37.5936C36.6357 26.5906 35.8001 25.9637 35.6498 25.1337C35.5498 24.5788 35.6873 24.043 36.0376 23.624C36.383 23.2106 36.8892 22.974 37.4265 22.974C37.7671 22.974 38.1037 23.0747 38.3996 23.2658C38.8394 23.5497 39.3903 23.6009 39.8757 23.4049L39.8773 23.4041Z"/>
<path fill-rule="evenodd" clip-rule="evenodd" d="M30.3084 41.1387H21.8766L21.8774 41.1379C19.9303 41.1379 18.2751 39.8026 17.9433 37.9619C17.7354 36.8144 18.0408 35.647 18.7821 34.7603C19.5953 33.7871 20.8403 33.2674 22.1012 33.3793C23.004 31.9768 24.5688 31.0869 26.3224 31.0869C27.7992 31.0869 29.1618 31.721 30.1013 32.7996C30.7306 32.766 31.3639 32.8828 31.9748 33.1482C33.1558 33.6608 34.0442 34.6939 34.3496 35.9133C34.6695 37.1927 34.3952 38.5112 33.598 39.5323C32.8016 40.5534 31.6022 41.1387 30.3084 41.1387ZM23.5997 36.8304C23.1151 37.0263 22.5634 36.9752 22.1236 36.6913L22.122 36.6905C22.0101 36.6185 21.8894 36.5818 21.7638 36.5818C21.5647 36.5818 21.3768 36.6705 21.2489 36.8232C21.1577 36.9328 21.0586 37.1207 21.1073 37.3902C21.1601 37.6828 21.5048 37.9211 21.875 37.9211H30.3068C30.6027 37.9211 30.8769 37.7868 31.06 37.5525C31.1672 37.4149 31.3327 37.1199 31.2264 36.6953C31.1648 36.4482 30.9545 36.2147 30.6914 36.1004C30.4372 35.99 30.2125 35.9845 29.9614 36.0836C29.1882 36.3875 28.3086 36.0508 27.936 35.3072C27.6265 34.6883 27.0076 34.3045 26.3208 34.3045C25.4764 34.3045 24.7535 34.8794 24.5624 35.703C24.4441 36.2131 24.0851 36.6337 23.5997 36.8304Z"/>
<path fill-rule="evenodd" clip-rule="evenodd" d="M28.7404 104.468C28.7404 101.178 31.4174 98.5009 34.7078 98.5009C37.9982 98.5009 40.6745 101.178 40.6745 104.468C40.6745 107.757 37.9982 110.434 34.7078 110.434C31.4174 110.434 28.7404 107.757 28.7404 104.468ZM31.958 104.468C31.958 105.983 33.1918 107.217 34.7078 107.217C36.2231 107.217 37.4569 105.984 37.4569 104.468C37.4569 102.952 36.2247 101.719 34.7078 101.719C33.191 101.719 31.958 102.952 31.958 104.468Z"/>
<path fill-rule="evenodd" clip-rule="evenodd" d="M34.7078 92.8349C28.2934 92.8349 23.0752 98.0532 23.0752 104.468C23.0752 110.882 28.2934 116.1 34.7078 116.1C41.1223 116.1 46.3405 110.882 46.3405 104.468C46.3405 98.0532 41.1223 92.8349 34.7078 92.8349ZM34.7078 112.883C30.0677 112.883 26.2928 109.108 26.2928 104.468C26.2928 99.8275 30.0677 96.0526 34.7078 96.0526C39.348 96.0526 43.1229 99.8275 43.1229 104.468C43.1229 109.108 39.348 112.883 34.7078 112.883Z"/>
</mask>
<path fill-rule="evenodd" clip-rule="evenodd" d="M70.1016 33.3633L82.8186 38.927C83.0241 39.0165 83.244 39.0613 83.4631 39.0613C83.6821 39.0613 83.8892 39.0189 84.0899 38.9342L113.739 26.3971C116.485 25.2545 118.862 21.6195 117.697 18.8185C116.45 15.8239 112.064 15.4066 109.564 16.4476L101.57 19.9667L82.4859 12.121C82.0549 11.9435 81.5696 11.9626 81.1546 12.1697L76.3857 14.5542C75.8708 14.8116 75.5333 15.3234 75.499 15.8975C75.4646 16.4716 75.7396 17.0202 76.2202 17.3368L88.7676 25.6023L80.0751 29.4285L75.7796 28.7128C75.5214 28.6696 75.2559 28.6904 75.0064 28.7736L70.2375 30.3632C69.6059 30.5735 69.1693 31.1516 69.1389 31.8169C69.1085 32.4822 69.4915 33.0963 70.1016 33.3633ZM80.0191 32.6821C80.3286 32.7332 80.6452 32.694 80.9323 32.5677L110.83 19.4062C112.187 18.8409 114.372 19.2055 114.726 20.0555C115.099 20.9518 113.832 22.8741 112.495 23.4306L83.4742 35.7022L75.2247 32.0927L75.6453 31.9528L80.0191 32.6821ZM92.521 24.2222L80.3198 16.1846L81.939 15.3754L99.045 22.4079L93.1159 24.9355C92.996 24.654 92.7953 24.4029 92.521 24.2222Z" fill="#B89A0F"/>
<path fill-rule="evenodd" clip-rule="evenodd" d="M106.381 74.2615H90.7507L90.7499 74.2607C89.0003 74.2607 87.5762 72.8375 87.5762 71.0871V55.0414C87.5762 53.2911 88.9995 51.867 90.7499 51.867H94.9542C96.8069 51.867 98.5069 52.8001 99.5016 54.3633L109.059 69.3831C109.681 70.3611 109.721 71.5997 109.164 72.6152C108.606 73.6307 107.54 74.2615 106.381 74.2615ZM106.381 71.0439L96.7869 56.0913L96.7877 56.0905C96.3863 55.4612 95.701 55.0846 94.955 55.0846H90.7507L90.7938 71.0871L106.381 71.0439Z" fill="#B89A0F"/>
<path fill-rule="evenodd" clip-rule="evenodd" d="M67.2478 74.2617H84.1012C85.8691 74.2617 87.3068 72.8232 87.3068 71.056V55.0743C87.3068 53.3064 85.8683 51.8687 84.1012 51.8687H67.2478C65.4799 51.8687 64.0422 53.3072 64.0422 55.0743V71.056C64.0422 72.824 65.4807 74.2617 67.2478 74.2617ZM84.09 71.044L67.2598 71.056L67.2478 55.0855L84.09 55.0735V71.044Z" fill="#B89A0F"/>
<path fill-rule="evenodd" clip-rule="evenodd" d="M59.6955 74.2617H42.8422C41.0751 74.2617 39.6366 72.824 39.6366 71.056V55.0743C39.6366 53.3072 41.0743 51.8687 42.8422 51.8687H59.6955C61.4627 51.8687 62.9011 53.3064 62.9011 55.0743V71.056C62.9011 72.8232 61.4635 74.2617 59.6955 74.2617ZM59.6843 71.044V55.0735L42.8422 55.0855L42.8542 71.056L59.6843 71.044Z" fill="#B89A0F"/>
<path fill-rule="evenodd" clip-rule="evenodd" d="M19.3074 74.2617H36.1615C37.9294 74.2617 39.3671 72.8232 39.3671 71.056V55.0743C39.3671 53.3064 37.9294 51.8687 36.1615 51.8687H19.3074C17.5394 51.8687 16.1018 53.3072 16.1018 55.0743V71.056C16.1018 72.824 17.5402 74.2617 19.3074 74.2617ZM36.1495 71.044L19.3194 71.056L19.3074 55.0855L36.1495 55.0735V71.044Z" fill="#B89A0F"/>
<path d="M107.625 89.2134V77.0106C107.625 76.1222 108.345 75.4018 109.234 75.4018C110.122 75.4018 110.842 76.1222 110.842 77.0106V89.2134C110.842 90.1018 110.122 90.8222 109.234 90.8222C108.345 90.8222 107.625 90.1018 107.625 89.2134Z" fill="#B89A0F"/>
<path d="M98.7739 78.0174H93.5437C92.6553 78.0174 91.9349 78.7378 91.9349 79.6262C91.9349 80.5145 92.6553 81.235 93.5437 81.235H98.7739C99.6623 81.235 100.383 80.5145 100.383 79.6262C100.383 78.7378 99.6623 78.0174 98.7739 78.0174Z" fill="#B89A0F"/>
<path d="M68.2657 78.0174H73.496C74.3843 78.0174 75.1048 78.7378 75.1048 79.6262C75.1048 80.5145 74.3843 81.235 73.496 81.235H68.2657C67.3774 81.235 66.6569 80.5145 66.6569 79.6262C66.6569 78.7378 67.3774 78.0174 68.2657 78.0174Z" fill="#B89A0F"/>
<path fill-rule="evenodd" clip-rule="evenodd" d="M22.2764 102.84C22.1268 104.437 20.8123 105.641 19.2187 105.641L19.2179 105.639C14.1212 105.639 10 101.519 10 96.4531V54.9512C10 49.8864 14.1212 45.7653 19.1867 45.7653H95.8434C98.9331 45.7653 101.8 47.3005 103.514 49.8713L115.956 68.5437C117.172 70.37 117.815 72.4945 117.815 74.6879V94.5597C117.815 100.67 112.845 105.641 106.735 105.641H102.587C100.94 105.641 99.5695 104.392 99.3992 102.736C98.742 96.3556 93.1935 91.5444 86.9781 91.5444C80.7628 91.5444 75.4438 96.1797 74.6058 102.327C74.3484 104.217 72.7107 105.641 70.7973 105.641H50.9894C49.0744 105.641 47.4368 104.216 47.1809 102.325C46.3429 96.1405 41.2662 91.4764 34.7582 91.4764C28.2502 91.4764 22.8841 96.362 22.2764 102.84ZM19.1867 48.9837C15.8955 48.9837 13.2176 51.6616 13.2176 54.9528V96.4547C13.2176 99.7107 15.8403 102.367 19.0835 102.422C19.9015 94.339 26.9101 88.2588 34.7574 88.2588C42.6048 88.2588 49.3158 94.1207 50.3689 101.894C50.4097 102.195 50.676 102.423 50.9886 102.423H62.2983V77.0107C62.2983 76.1223 63.0187 75.4019 63.9071 75.4019C64.7954 75.4019 65.5159 76.1223 65.5159 77.0107V102.423H70.7965C71.1091 102.423 71.3754 102.195 71.417 101.893C72.4717 94.1591 79.1612 88.3267 86.9773 88.3267C87.0998 88.3267 87.2202 88.3344 87.3404 88.342C87.4189 88.3469 87.4973 88.3519 87.5762 88.3547V77.0107C87.5762 76.1223 88.2967 75.4019 89.1851 75.4019C90.0734 75.4019 90.7939 76.1223 90.7939 77.0107V88.8065C97.0844 90.3673 101.908 95.6879 102.599 102.406L106.735 102.423C111.07 102.423 114.597 98.8951 114.597 94.5597V74.6879C114.597 73.131 114.142 71.6238 113.278 70.3276L100.836 51.656C99.7207 49.9832 97.8544 48.9837 95.8434 48.9837H19.1867Z" fill="#B89A0F"/>
<path fill-rule="evenodd" clip-rule="evenodd" d="M87.0061 98.5009C83.7157 98.5009 81.0394 101.178 81.0394 104.468C81.0394 107.757 83.7157 110.434 87.0061 110.434C90.2965 110.434 92.9736 107.757 92.9736 104.468C92.9736 101.178 90.2965 98.5009 87.0061 98.5009ZM87.0061 107.217C85.4901 107.217 84.257 105.983 84.257 104.468C84.257 102.952 85.4901 101.719 87.0061 101.719C88.5222 101.719 89.756 102.952 89.756 104.468C89.756 105.984 88.5222 107.217 87.0061 107.217Z" fill="#B89A0F"/>
<path fill-rule="evenodd" clip-rule="evenodd" d="M75.3734 104.468C75.3734 98.0532 80.5917 92.8349 87.0061 92.8349C93.4206 92.8349 98.6388 98.0532 98.6388 104.468C98.6388 110.882 93.4206 116.1 87.0061 116.1C80.5917 116.1 75.3734 110.882 75.3734 104.468ZM87.0061 96.0526C82.366 96.0526 78.5911 99.8275 78.5911 104.468C78.5911 109.108 82.366 112.883 87.0061 112.883C91.6462 112.883 95.4212 109.108 95.4212 104.468C95.4212 99.8275 91.6462 96.0526 87.0061 96.0526Z" fill="#B89A0F"/>
<path d="M58.7208 41.9647C58.5097 42.0575 58.2898 42.1015 58.0731 42.1015C57.455 42.1015 56.8649 41.7425 56.6003 41.1403C56.242 40.3271 56.6106 39.378 57.4238 39.0198L66.6809 34.945C67.4941 34.5868 68.444 34.9562 68.8022 35.7694C69.1597 36.5826 68.791 37.5317 67.9778 37.8899L58.7208 41.9647Z" fill="#B89A0F"/>
<path d="M58.0731 36.9751C58.2898 36.9751 58.5097 36.9311 58.7208 36.8384L67.9778 32.7636C68.791 32.4053 69.1597 31.4562 68.8022 30.643C68.444 29.8298 67.4941 29.4604 66.6809 29.8186L57.4238 33.8934C56.6106 34.2516 56.242 35.2008 56.6003 36.014C56.8649 36.6161 57.455 36.9751 58.0731 36.9751Z" fill="#B89A0F"/>
<path d="M65.9677 40.7285L75.2239 36.6537C76.0379 36.2947 76.9855 36.6649 77.3445 37.4781C77.7019 38.2913 77.3333 39.2404 76.5201 39.5987L67.263 43.6735C67.0527 43.7662 66.8329 43.8102 66.6162 43.8102C65.9973 43.8102 65.4079 43.4512 65.1425 42.8491C64.7851 42.0359 65.1545 41.0867 65.9677 40.7285Z" fill="#B89A0F"/>
<path fill-rule="evenodd" clip-rule="evenodd" d="M37.5952 29.8074H50.2426C51.8554 29.8074 53.377 29.0989 54.4165 27.8636C55.4552 26.629 55.891 24.9986 55.6119 23.3906C55.2993 21.5866 54.0343 20.0258 52.312 19.3182C51.422 18.9519 50.4961 18.8264 49.5797 18.9431C48.3195 17.3111 46.3781 16.338 44.2623 16.338C41.738 16.338 39.5047 17.7149 38.3516 19.8419C36.5909 19.5085 34.727 20.1737 33.57 21.5595C32.6121 22.7061 32.2162 24.2165 32.4849 25.7046C32.9143 28.0818 35.0636 29.8074 37.5952 29.8074ZM39.8773 23.4041C40.3626 23.2074 40.7217 22.7868 40.84 22.2767C41.211 20.6751 42.6183 19.5564 44.2615 19.5564C45.5977 19.5564 46.8019 20.3025 47.404 21.5035C47.7766 22.2471 48.6546 22.5838 49.4302 22.2799C49.9883 22.0608 50.5304 22.0656 51.0878 22.2951C51.7866 22.5822 52.3176 23.2282 52.4407 23.9415C52.559 24.6211 52.3855 25.2792 51.9529 25.7926C51.5267 26.2995 50.9031 26.5906 50.241 26.5906H37.5936C36.6357 26.5906 35.8001 25.9637 35.6498 25.1337C35.5498 24.5788 35.6873 24.043 36.0376 23.624C36.383 23.2106 36.8892 22.974 37.4265 22.974C37.7671 22.974 38.1037 23.0747 38.3996 23.2658C38.8394 23.5497 39.3903 23.6009 39.8757 23.4049L39.8773 23.4041Z" fill="#B89A0F"/>
<path fill-rule="evenodd" clip-rule="evenodd" d="M30.3084 41.1387H21.8766L21.8774 41.1379C19.9303 41.1379 18.2751 39.8026 17.9433 37.9619C17.7354 36.8144 18.0408 35.647 18.7821 34.7603C19.5953 33.7871 20.8403 33.2674 22.1012 33.3793C23.004 31.9768 24.5688 31.0869 26.3224 31.0869C27.7992 31.0869 29.1618 31.721 30.1013 32.7996C30.7306 32.766 31.3639 32.8828 31.9748 33.1482C33.1558 33.6608 34.0442 34.6939 34.3496 35.9133C34.6695 37.1927 34.3952 38.5112 33.598 39.5323C32.8016 40.5534 31.6022 41.1387 30.3084 41.1387ZM23.5997 36.8304C23.1151 37.0263 22.5634 36.9752 22.1236 36.6913L22.122 36.6905C22.0101 36.6185 21.8894 36.5818 21.7638 36.5818C21.5647 36.5818 21.3768 36.6705 21.2489 36.8232C21.1577 36.9328 21.0586 37.1207 21.1073 37.3902C21.1601 37.6828 21.5048 37.9211 21.875 37.9211H30.3068C30.6027 37.9211 30.8769 37.7868 31.06 37.5525C31.1672 37.4149 31.3327 37.1199 31.2264 36.6953C31.1648 36.4482 30.9545 36.2147 30.6914 36.1004C30.4372 35.99 30.2125 35.9845 29.9614 36.0836C29.1882 36.3875 28.3086 36.0508 27.936 35.3072C27.6265 34.6883 27.0076 34.3045 26.3208 34.3045C25.4764 34.3045 24.7535 34.8794 24.5624 35.703C24.4441 36.2131 24.0851 36.6337 23.5997 36.8304Z" fill="#B89A0F"/>
<path fill-rule="evenodd" clip-rule="evenodd" d="M28.7404 104.468C28.7404 101.178 31.4174 98.5009 34.7078 98.5009C37.9982 98.5009 40.6745 101.178 40.6745 104.468C40.6745 107.757 37.9982 110.434 34.7078 110.434C31.4174 110.434 28.7404 107.757 28.7404 104.468ZM31.958 104.468C31.958 105.983 33.1918 107.217 34.7078 107.217C36.2231 107.217 37.4569 105.984 37.4569 104.468C37.4569 102.952 36.2247 101.719 34.7078 101.719C33.191 101.719 31.958 102.952 31.958 104.468Z" fill="#B89A0F"/>
<path fill-rule="evenodd" clip-rule="evenodd" d="M34.7078 92.8349C28.2934 92.8349 23.0752 98.0532 23.0752 104.468C23.0752 110.882 28.2934 116.1 34.7078 116.1C41.1223 116.1 46.3405 110.882 46.3405 104.468C46.3405 98.0532 41.1223 92.8349 34.7078 92.8349ZM34.7078 112.883C30.0677 112.883 26.2928 109.108 26.2928 104.468C26.2928 99.8275 30.0677 96.0526 34.7078 96.0526C39.348 96.0526 43.1229 99.8275 43.1229 104.468C43.1229 109.108 39.348 112.883 34.7078 112.883Z" fill="#B89A0F"/>
<path d="M84.09 71.294H84.1028V70.794H84.09V71.294ZM59.6843 71.294H59.6955V70.794H59.6843V71.294ZM82.8186 38.927L82.6182 39.3851L82.6188 39.3854L82.8186 38.927ZM70.1016 33.3633L69.9011 33.8214L69.9012 33.8214L70.1016 33.3633ZM84.0899 38.9342L84.2845 39.3948L84.2847 39.3947L84.0899 38.9342ZM113.739 26.3971L113.547 25.9355L113.545 25.9366L113.739 26.3971ZM117.697 18.8185L118.158 18.6265L118.158 18.6263L117.697 18.8185ZM109.564 16.4476L109.372 15.986L109.362 15.99L109.564 16.4476ZM101.57 19.9667L101.38 20.4292C101.506 20.4809 101.647 20.4791 101.772 20.4243L101.57 19.9667ZM82.4859 12.121L82.2955 12.5833L82.2958 12.5834L82.4859 12.121ZM81.1546 12.1697L80.9313 11.7224L80.931 11.7225L81.1546 12.1697ZM76.3857 14.5542L76.6093 15.0014V15.0014L76.3857 14.5542ZM76.2202 17.3368L75.9451 17.7543L75.9452 17.7543L76.2202 17.3368ZM88.7676 25.6023L88.9691 26.06C89.1367 25.9862 89.2505 25.8267 89.2659 25.6443C89.2812 25.4618 89.1956 25.2855 89.0427 25.1848L88.7676 25.6023ZM80.0751 29.4285L79.9929 29.9217C80.0889 29.9376 80.1875 29.9253 80.2765 29.8861L80.0751 29.4285ZM75.7796 28.7128L75.6972 29.206L75.6975 29.206L75.7796 28.7128ZM75.0064 28.7736L74.8483 28.2992L75.0064 28.7736ZM70.2375 30.3632L70.3955 30.8376L70.3957 30.8375L70.2375 30.3632ZM80.9323 32.5677L81.1337 33.0253L81.1337 33.0253L80.9323 32.5677ZM80.0191 32.6821L79.9369 33.1752L79.9376 33.1754L80.0191 32.6821ZM110.83 19.4062L110.637 18.9445L110.628 18.9486L110.83 19.4062ZM114.726 20.0555L115.188 19.8632L115.188 19.8631L114.726 20.0555ZM112.495 23.4306L112.303 22.969L112.3 22.9701L112.495 23.4306ZM83.4742 35.7022L83.2738 36.1602C83.3996 36.2153 83.5425 36.2162 83.669 36.1627L83.4742 35.7022ZM75.2247 32.0927L75.0669 31.6183C74.8705 31.6836 74.7347 31.8632 74.7252 32.0699C74.7158 32.2767 74.8347 32.4679 75.0243 32.5508L75.2247 32.0927ZM75.6453 31.9528L75.7275 31.4596C75.6472 31.4462 75.5648 31.4527 75.4874 31.4784L75.6453 31.9528ZM80.3198 16.1846L80.0963 15.7373C79.9364 15.8172 79.8313 15.9764 79.8207 16.1548C79.81 16.3332 79.8955 16.5038 80.0447 16.6021L80.3198 16.1846ZM92.521 24.2222L92.7961 23.8047L92.7961 23.8047L92.521 24.2222ZM81.939 15.3754L82.1291 14.9129C81.9955 14.858 81.8447 14.8635 81.7155 14.9281L81.939 15.3754ZM99.045 22.4079L99.2411 22.8679C99.4264 22.7888 99.5463 22.6062 99.545 22.4047C99.5437 22.2031 99.4215 22.0221 99.2351 21.9455L99.045 22.4079ZM93.1159 24.9355L92.6559 25.1315C92.7079 25.2535 92.8062 25.3498 92.9293 25.3993C93.0523 25.4488 93.19 25.4474 93.312 25.3954L93.1159 24.9355ZM19.2187 105.641L18.7713 105.864C18.856 106.034 19.0292 106.141 19.2187 106.141V105.641ZM22.2764 102.84L21.7786 102.794L21.7785 102.794L22.2764 102.84ZM19.2179 105.639L19.6652 105.416C19.5805 105.246 19.4073 105.139 19.2179 105.139V105.639ZM103.514 49.8713L103.93 49.594L103.93 49.5939L103.514 49.8713ZM115.956 68.5437L116.372 68.2665L116.372 68.2664L115.956 68.5437ZM99.3992 102.736L99.8966 102.684L99.8966 102.684L99.3992 102.736ZM74.6058 102.327L74.1104 102.26V102.26L74.6058 102.327ZM47.1809 102.325L47.6764 102.258L47.6764 102.258L47.1809 102.325ZM19.0835 102.422L19.075 102.922C19.3349 102.927 19.5548 102.731 19.581 102.473L19.0835 102.422ZM50.3689 101.894L50.8644 101.827L50.8644 101.827L50.3689 101.894ZM62.2983 102.423V102.923C62.5744 102.923 62.7983 102.699 62.7983 102.423H62.2983ZM65.5159 102.423H65.0159C65.0159 102.699 65.2398 102.923 65.5159 102.923V102.423ZM71.417 101.893L71.9123 101.961L71.9124 101.96L71.417 101.893ZM87.3404 88.342L87.372 87.843L87.3404 88.342ZM87.5762 88.3547L87.5583 88.8544C87.6939 88.8593 87.8257 88.8088 87.9234 88.7146C88.0211 88.6203 88.0762 88.4905 88.0762 88.3547H87.5762ZM90.7939 88.8065H90.2939C90.2939 89.0363 90.4504 89.2365 90.6734 89.2918L90.7939 88.8065ZM102.599 102.406L102.102 102.457C102.128 102.712 102.342 102.905 102.597 102.906L102.599 102.406ZM106.735 102.423L106.733 102.923H106.735V102.423ZM113.278 70.3276L113.694 70.0504L113.694 70.0503L113.278 70.3276ZM100.836 51.656L101.252 51.3787L101.252 51.3786L100.836 51.656ZM90.7507 74.2615L90.3971 74.6151C90.4909 74.7089 90.618 74.7615 90.7507 74.7615V74.2615ZM90.7499 74.2607L91.1034 73.9072C91.0096 73.8134 90.8825 73.7607 90.7499 73.7607V74.2607ZM99.5016 54.3633L99.0797 54.6318L99.0797 54.6318L99.5016 54.3633ZM109.059 69.3831L109.481 69.1148L109.481 69.1147L109.059 69.3831ZM109.164 72.6152L109.602 72.856L109.602 72.8557L109.164 72.6152ZM96.7869 56.0913L96.4333 55.7377C96.2671 55.9039 96.2391 56.1635 96.3661 56.3613L96.7869 56.0913ZM106.381 71.0439L106.383 71.5439C106.565 71.5434 106.733 71.4434 106.82 71.2831C106.908 71.1228 106.901 70.9276 106.802 70.7739L106.381 71.0439ZM96.7877 56.0905L97.1412 56.444C97.3071 56.2782 97.3354 56.0193 97.2092 55.8216L96.7877 56.0905ZM90.7507 55.0846V54.5846C90.6178 54.5846 90.4904 54.6374 90.3966 54.7315C90.3028 54.8256 90.2503 54.9531 90.2507 55.0859L90.7507 55.0846ZM90.7938 71.0871L90.2938 71.0885C90.2942 71.2211 90.3472 71.3481 90.4413 71.4416C90.5353 71.5351 90.6626 71.5875 90.7952 71.5871L90.7938 71.0871ZM67.2598 71.056L66.7598 71.0564C66.76 71.3326 66.984 71.5562 67.2602 71.556L67.2598 71.056ZM84.09 71.044L84.0903 71.544C84.3663 71.5438 84.59 71.32 84.59 71.044H84.09ZM67.2478 55.0855L67.2475 54.5855C67.1149 54.5856 66.9877 54.6384 66.894 54.7322C66.8003 54.826 66.7477 54.9533 66.7478 55.0859L67.2478 55.0855ZM84.09 55.0735H84.59C84.59 54.9408 84.5372 54.8136 84.4434 54.7198C84.3495 54.626 84.2223 54.5734 84.0896 54.5735L84.09 55.0735ZM59.6843 55.0735H60.1843C60.1843 54.9408 60.1316 54.8136 60.0378 54.7198C59.9439 54.626 59.8166 54.5734 59.684 54.5735L59.6843 55.0735ZM59.6843 71.044L59.6847 71.544C59.9607 71.5438 60.1843 71.32 60.1843 71.044H59.6843ZM42.8422 55.0855L42.8419 54.5855C42.7093 54.5856 42.5821 54.6384 42.4884 54.7322C42.3947 54.826 42.3421 54.9533 42.3422 55.0859L42.8422 55.0855ZM42.8542 71.056L42.3542 71.0564C42.3544 71.3326 42.5784 71.5562 42.8546 71.556L42.8542 71.056ZM19.3194 71.056L18.8194 71.0564C18.8196 71.3326 19.0436 71.5562 19.3197 71.556L19.3194 71.056ZM36.1495 71.044L36.1499 71.544C36.4259 71.5438 36.6495 71.32 36.6495 71.044H36.1495ZM19.3074 55.0855L19.307 54.5855C19.1744 54.5856 19.0473 54.6384 18.9536 54.7322C18.8599 54.826 18.8073 54.9533 18.8074 55.0859L19.3074 55.0855ZM36.1495 55.0735H36.6495C36.6495 54.9408 36.5968 54.8136 36.5029 54.7198C36.4091 54.626 36.2818 54.5734 36.1491 54.5735L36.1495 55.0735ZM58.7208 41.9647L58.922 42.4225L58.9223 42.4224L58.7208 41.9647ZM56.6003 41.1403L57.058 40.9391L57.0578 40.9388L56.6003 41.1403ZM57.4238 39.0198L57.2224 38.5622L57.2223 38.5622L57.4238 39.0198ZM66.6809 34.945L66.8823 35.4026L66.8825 35.4026L66.6809 34.945ZM68.8022 35.7694L69.26 35.5682L69.2598 35.5678L68.8022 35.7694ZM67.9778 37.8899L68.1793 38.3476L68.1794 38.3475L67.9778 37.8899ZM58.7208 36.8384L58.922 37.2961L58.9223 37.296L58.7208 36.8384ZM67.9778 32.7636L68.1793 33.2212L68.1794 33.2211L67.9778 32.7636ZM68.8022 30.643L69.26 30.4418L69.2598 30.4414L68.8022 30.643ZM66.6809 29.8186L66.8823 30.2762L66.8825 30.2762L66.6809 29.8186ZM57.4238 33.8934L57.2224 33.4358L57.2223 33.4358L57.4238 33.8934ZM56.6003 36.014L57.058 35.8128L57.0578 35.8124L56.6003 36.014ZM75.2239 36.6537L75.4254 37.1113L75.4257 37.1112L75.2239 36.6537ZM65.9677 40.7285L65.7662 40.2709L65.7661 40.2709L65.9677 40.7285ZM77.3445 37.4781L77.8022 37.2769L77.8019 37.2762L77.3445 37.4781ZM76.5201 39.5987L76.7215 40.0563L76.7216 40.0562L76.5201 39.5987ZM67.263 43.6735L67.0616 43.2158L67.0613 43.216L67.263 43.6735ZM65.1425 42.8491L64.6847 43.0503L64.685 43.0508L65.1425 42.8491ZM54.4165 27.8636L54.7991 28.1855L54.7991 28.1854L54.4165 27.8636ZM55.6119 23.3906L55.1193 23.4759L55.1193 23.4761L55.6119 23.3906ZM52.312 19.3182L52.1217 19.7805L52.1219 19.7806L52.312 19.3182ZM49.5797 18.9431L49.184 19.2487C49.2923 19.3891 49.467 19.4615 49.6429 19.4391L49.5797 18.9431ZM38.3516 19.8419L38.2586 20.3332C38.4723 20.3736 38.6876 20.2714 38.7912 20.0802L38.3516 19.8419ZM33.57 21.5595L33.9537 21.88L33.9538 21.8799L33.57 21.5595ZM32.4849 25.7046L31.9929 25.7935L31.9929 25.7935L32.4849 25.7046ZM40.84 22.2767L41.3271 22.3897L41.3271 22.3895L40.84 22.2767ZM39.8773 23.4041L39.6895 22.9408C39.6773 22.9457 39.6654 22.9511 39.6537 22.9569L39.8773 23.4041ZM47.404 21.5035L47.851 21.2795L47.851 21.2794L47.404 21.5035ZM49.4302 22.2799L49.6126 22.7455L49.6129 22.7453L49.4302 22.2799ZM51.0878 22.2951L50.8974 22.7574L50.8978 22.7576L51.0878 22.2951ZM52.4407 23.9415L51.948 24.0265L51.9481 24.0273L52.4407 23.9415ZM51.9529 25.7926L51.5706 25.4704L51.5702 25.4708L51.9529 25.7926ZM35.6498 25.1337L35.1577 25.2223L35.1578 25.2228L35.6498 25.1337ZM36.0376 23.624L36.4212 23.9447L36.4212 23.9446L36.0376 23.624ZM38.3996 23.2658L38.1283 23.6858L38.1285 23.6859L38.3996 23.2658ZM39.8757 23.4049L40.0628 23.8686C40.0752 23.8636 40.0873 23.8581 40.0993 23.8522L39.8757 23.4049ZM21.8766 41.1387L21.523 40.7852C21.38 40.9282 21.3372 41.1432 21.4146 41.3301C21.492 41.5169 21.6743 41.6387 21.8766 41.6387V41.1387ZM21.8774 41.1379L22.2309 41.4915C22.3739 41.3485 22.4167 41.1334 22.3393 40.9466C22.2619 40.7597 22.0796 40.6379 21.8774 40.6379V41.1379ZM17.9433 37.9619L18.4354 37.8732L18.4353 37.8727L17.9433 37.9619ZM18.7821 34.7603L19.1657 35.0809L19.1657 35.0809L18.7821 34.7603ZM22.1012 33.3793L22.057 33.8774C22.2421 33.8938 22.4211 33.8062 22.5217 33.65L22.1012 33.3793ZM30.1013 32.7996L29.7243 33.128C29.8254 33.2441 29.9743 33.3071 30.128 33.2989L30.1013 32.7996ZM31.9748 33.1482L31.7755 33.6068L31.7758 33.6069L31.9748 33.1482ZM34.3496 35.9133L34.8347 35.792L34.8347 35.7918L34.3496 35.9133ZM33.598 39.5323L33.2039 39.2246L33.2037 39.2248L33.598 39.5323ZM22.1236 36.6913L22.3948 36.2712C22.3794 36.2613 22.3636 36.2523 22.3472 36.2441L22.1236 36.6913ZM23.5997 36.8304L23.7871 37.294L23.7875 37.2938L23.5997 36.8304ZM22.122 36.6905L21.8517 37.1111C21.8668 37.1208 21.8824 37.1297 21.8984 37.1377L22.122 36.6905ZM21.2489 36.8232L20.8656 36.5022L20.8645 36.5034L21.2489 36.8232ZM21.1073 37.3902L21.5994 37.3014L21.5993 37.3011L21.1073 37.3902ZM31.06 37.5525L31.454 37.8604L31.4545 37.8598L31.06 37.5525ZM31.2264 36.6953L30.7412 36.8162L30.7414 36.8168L31.2264 36.6953ZM30.6914 36.1004L30.8907 35.6418L30.8905 35.6417L30.6914 36.1004ZM29.9614 36.0836L30.1443 36.549L30.145 36.5487L29.9614 36.0836ZM27.936 35.3072L27.4888 35.5308L27.489 35.5312L27.936 35.3072ZM24.5624 35.703L24.0754 35.59L24.0754 35.59L24.5624 35.703ZM83.019 38.4689L70.302 32.9052L69.9012 33.8214L82.6182 39.3851L83.019 38.4689ZM83.4631 38.5613C83.3119 38.5613 83.1601 38.5304 83.0183 38.4686L82.6188 39.3854C82.8881 39.5027 83.176 39.5613 83.4631 39.5613V38.5613ZM83.8954 38.4736C83.7558 38.5325 83.6148 38.5613 83.4631 38.5613V39.5613C83.7495 39.5613 84.0227 39.5053 84.2845 39.3948L83.8954 38.4736ZM113.545 25.9366L83.8952 38.4737L84.2847 39.3947L113.934 26.8577L113.545 25.9366ZM117.235 19.0105C117.739 20.2216 117.494 21.6644 116.749 22.9838C116.005 24.3011 114.805 25.4122 113.547 25.9355L113.931 26.8588C115.42 26.2394 116.781 24.9618 117.62 23.4756C118.458 21.9915 118.82 20.2163 118.158 18.6265L117.235 19.0105ZM109.756 16.9092C110.904 16.4311 112.52 16.28 113.992 16.6077C115.461 16.9351 116.696 17.715 117.235 19.0106L118.158 18.6263C117.451 16.9275 115.869 16.0014 114.209 15.6317C112.551 15.2623 110.724 15.4231 109.372 15.9861L109.756 16.9092ZM101.772 20.4243L109.765 16.9053L109.362 15.99L101.369 19.5091L101.772 20.4243ZM82.2958 12.5834L101.38 20.4292L101.76 19.5043L82.676 11.6585L82.2958 12.5834ZM81.3778 12.6171C81.6644 12.4741 81.999 12.4612 82.2955 12.5833L82.6764 11.6586C82.1109 11.4258 81.4747 11.4512 80.9313 11.7224L81.3778 12.6171ZM76.6093 15.0014L81.3782 12.617L80.931 11.7225L76.1621 14.107L76.6093 15.0014ZM75.9981 15.9274C76.0218 15.5315 76.2543 15.1789 76.6093 15.0014L76.1621 14.107C75.4873 14.4444 75.0449 15.1153 74.9999 15.8676L75.9981 15.9274ZM76.4953 16.9193C76.1638 16.7008 75.9744 16.3227 75.9981 15.9274L74.9999 15.8676C74.9548 16.6205 75.3155 17.3395 75.9451 17.7543L76.4953 16.9193ZM89.0427 25.1848L76.4953 16.9193L75.9452 17.7543L88.4926 26.0199L89.0427 25.1848ZM80.2765 29.8861L88.9691 26.06L88.5662 25.1447L79.8737 28.9708L80.2765 29.8861ZM75.6975 29.206L79.9929 29.9217L80.1573 28.9353L75.8618 28.2196L75.6975 29.206ZM75.1645 29.2479C75.3368 29.1905 75.5196 29.1763 75.6972 29.206L75.8621 28.2197C75.5231 28.163 75.175 28.1903 74.8483 28.2992L75.1645 29.2479ZM70.3957 30.8375L75.1645 29.2479L74.8483 28.2992L70.0794 29.8889L70.3957 30.8375ZM69.6384 31.8397C69.6593 31.3808 69.9605 30.9824 70.3955 30.8376L70.0796 29.8888C69.2513 30.1646 68.6792 30.9225 68.6394 31.7941L69.6384 31.8397ZM70.3021 32.9053C69.881 32.7209 69.6175 32.2976 69.6384 31.8397L68.6394 31.7941C68.5996 32.6667 69.1021 33.4716 69.9011 33.8214L70.3021 32.9053ZM80.7309 32.1101C80.5334 32.197 80.3152 32.2242 80.1007 32.1888L79.9376 33.1754C80.342 33.2422 80.757 33.1911 81.1337 33.0253L80.7309 32.1101ZM110.628 18.9486L80.7308 32.1101L81.1337 33.0253L111.031 19.8638L110.628 18.9486ZM115.188 19.8631C115.035 19.4981 114.717 19.2443 114.391 19.0733C114.056 18.8974 113.654 18.7765 113.236 18.7069C112.409 18.569 111.424 18.6171 110.637 18.9446L111.022 19.8677C111.593 19.63 112.379 19.5777 113.072 19.6933C113.414 19.7504 113.709 19.8447 113.926 19.9586C114.152 20.0773 114.24 20.1879 114.265 20.2478L115.188 19.8631ZM112.687 23.8922C113.474 23.5646 114.196 22.8632 114.669 22.146C114.909 21.7829 115.1 21.3934 115.205 21.0161C115.307 20.6484 115.342 20.2331 115.188 19.8632L114.265 20.2477C114.297 20.326 114.314 20.4871 114.241 20.7493C114.171 21.0019 114.032 21.2959 113.835 21.5949C113.434 22.2021 112.853 22.7401 112.303 22.969L112.687 23.8922ZM83.669 36.1627L112.69 23.8911L112.3 22.9701L83.2795 35.2416L83.669 36.1627ZM75.0243 32.5508L83.2738 36.1602L83.6747 35.2441L75.4251 31.6347L75.0243 32.5508ZM75.4874 31.4784L75.0669 31.6183L75.3826 32.5672L75.8031 32.4272L75.4874 31.4784ZM80.1014 32.1889L75.7275 31.4596L75.5631 32.446L79.9369 33.1752L80.1014 32.1889ZM80.0447 16.6021L92.2459 24.6398L92.7961 23.8047L80.5949 15.767L80.0447 16.6021ZM81.7155 14.9281L80.0963 15.7373L80.5433 16.6318L82.1625 15.8226L81.7155 14.9281ZM99.2351 21.9455L82.1291 14.9129L81.7489 15.8378L98.8549 22.8704L99.2351 21.9455ZM93.312 25.3954L99.2411 22.8679L98.8489 21.948L92.9198 24.4755L93.312 25.3954ZM92.2459 24.6397C92.4348 24.7642 92.5729 24.9367 92.6559 25.1315L93.5759 24.7394C93.419 24.3713 93.1557 24.0416 92.7961 23.8047L92.2459 24.6397ZM19.2187 106.141C21.0728 106.141 22.6008 104.738 22.7742 102.887L21.7785 102.794C21.6529 104.136 20.5518 105.141 19.2187 105.141V106.141ZM18.7705 105.862L18.7713 105.864L19.666 105.417L19.6652 105.416L18.7705 105.862ZM9.5 96.4531C9.5 101.796 13.8462 106.139 19.2179 106.139V105.139C14.3962 105.139 10.5 101.241 10.5 96.4531H9.5ZM9.5 54.9512V96.4531H10.5V54.9512H9.5ZM19.1867 45.2653C13.8451 45.2653 9.5 49.6103 9.5 54.9512H10.5C10.5 50.1626 14.3973 46.2653 19.1867 46.2653V45.2653ZM95.8434 45.2653H19.1867V46.2653H95.8434V45.2653ZM103.93 49.5939C102.124 46.8841 99.1003 45.2653 95.8434 45.2653V46.2653C98.7658 46.2653 101.477 47.7169 103.098 50.1486L103.93 49.5939ZM116.372 68.2664L103.93 49.594L103.098 50.1485L115.54 68.8209L116.372 68.2664ZM118.315 74.6879C118.315 72.3959 117.643 70.1749 116.372 68.2665L115.54 68.8208C116.701 70.5651 117.315 72.5932 117.315 74.6879H118.315ZM118.315 94.5597V74.6879H117.315V94.5597H118.315ZM106.735 106.141C113.121 106.141 118.315 100.946 118.315 94.5597H117.315C117.315 100.394 112.568 105.141 106.735 105.141V106.141ZM102.587 106.141H106.735V105.141H102.587V106.141ZM98.9019 102.787C99.098 104.693 100.679 106.141 102.587 106.141V105.141C101.201 105.141 100.041 104.09 99.8966 102.684L98.9019 102.787ZM86.9781 92.0444C92.943 92.0444 98.2715 96.6676 98.9019 102.787L99.8966 102.684C99.2125 96.0436 93.4439 91.0444 86.9781 91.0444V92.0444ZM75.1012 102.395C75.9054 96.4957 81.0121 92.0444 86.9781 92.0444V91.0444C80.5135 91.0444 74.9823 95.8637 74.1104 102.26L75.1012 102.395ZM70.7973 106.141C72.9593 106.141 74.8098 104.533 75.1012 102.395L74.1104 102.26C73.8869 103.9 72.4622 105.141 70.7973 105.141V106.141ZM50.9894 106.141H70.7973V105.141H50.9894V106.141ZM46.6854 102.393C46.9751 104.532 48.8259 106.141 50.9894 106.141V105.141C49.3229 105.141 47.8985 103.899 47.6764 102.258L46.6854 102.393ZM34.7582 91.9764C41.0096 91.9764 45.8802 96.4492 46.6854 102.393L47.6764 102.258C46.8057 95.8318 41.5228 90.9764 34.7582 90.9764V91.9764ZM22.7742 102.887C23.3578 96.6657 28.5082 91.9764 34.7582 91.9764V90.9764C27.9922 90.9764 22.4104 96.0583 21.7786 102.794L22.7742 102.887ZM13.7176 54.9528C13.7176 51.9377 16.1716 49.4837 19.1867 49.4837V48.4837C15.6193 48.4837 12.7176 51.3854 12.7176 54.9528H13.7176ZM13.7176 96.4547V54.9528H12.7176V96.4547H13.7176ZM19.092 101.922C16.121 101.872 13.7176 99.4373 13.7176 96.4547H12.7176C12.7176 99.9841 15.5596 102.862 19.075 102.922L19.092 101.922ZM34.7574 87.7588C26.6591 87.7588 19.4305 94.0277 18.5861 102.372L19.581 102.473C20.3726 94.6503 27.161 88.7588 34.7574 88.7588V87.7588ZM50.8644 101.827C49.7777 93.8055 42.8548 87.7588 34.7574 87.7588V88.7588C42.3547 88.7588 48.854 94.4359 49.8735 101.961L50.8644 101.827ZM50.9886 101.923C50.9165 101.923 50.8704 101.871 50.8644 101.827L49.8734 101.961C49.9491 102.52 50.4355 102.923 50.9886 102.923V101.923ZM62.2983 101.923H50.9886V102.923H62.2983V101.923ZM61.7983 77.0107V102.423H62.7983V77.0107H61.7983ZM63.9071 74.9019C62.7426 74.9019 61.7983 75.8462 61.7983 77.0107H62.7983C62.7983 76.3985 63.2949 75.9019 63.9071 75.9019V74.9019ZM66.0159 77.0107C66.0159 75.8462 65.0716 74.9019 63.9071 74.9019V75.9019C64.5193 75.9019 65.0159 76.3985 65.0159 77.0107H66.0159ZM66.0159 102.423V77.0107H65.0159V102.423H66.0159ZM70.7965 101.923H65.5159V102.923H70.7965V101.923ZM70.9216 101.825C70.9153 101.871 70.868 101.923 70.7965 101.923V102.923C71.3503 102.923 71.8355 102.519 71.9123 101.961L70.9216 101.825ZM86.9773 87.8267C78.9117 87.8267 72.0101 93.8433 70.9216 101.825L71.9124 101.96C72.9332 94.4749 79.4107 88.8267 86.9773 88.8267V87.8267ZM87.372 87.843C87.2542 87.8355 87.1181 87.8267 86.9773 87.8267V88.8267C87.0814 88.8267 87.1861 88.8332 87.3089 88.841L87.372 87.843ZM87.5942 87.855C87.5232 87.8525 87.4516 87.848 87.372 87.843L87.3089 88.841C87.3862 88.8459 87.4714 88.8513 87.5583 88.8544L87.5942 87.855ZM87.0762 77.0107V88.3547H88.0762V77.0107H87.0762ZM89.1851 74.9019C88.0206 74.9019 87.0762 75.8462 87.0762 77.0107H88.0762C88.0762 76.3985 88.5728 75.9019 89.1851 75.9019V74.9019ZM91.2939 77.0107C91.2939 75.8462 90.3496 74.9019 89.1851 74.9019V75.9019C89.7973 75.9019 90.2939 76.3985 90.2939 77.0107H91.2939ZM91.2939 88.8065V77.0107H90.2939V88.8065H91.2939ZM103.097 102.355C102.383 95.4222 97.4047 89.9316 90.9143 88.3212L90.6734 89.2918C96.7641 90.803 101.432 95.9536 102.102 102.457L103.097 102.355ZM106.737 101.923L102.601 101.906L102.597 102.906L106.733 102.923L106.737 101.923ZM114.097 94.5597C114.097 98.6191 110.794 101.923 106.735 101.923V102.923C111.347 102.923 115.097 99.1712 115.097 94.5597H114.097ZM114.097 74.6879V94.5597H115.097V74.6879H114.097ZM112.862 70.6048C113.671 71.8188 114.097 73.2296 114.097 74.6879H115.097C115.097 73.0324 114.612 71.4287 113.694 70.0504L112.862 70.6048ZM100.42 51.9332L112.862 70.6049L113.694 70.0503L101.252 51.3787L100.42 51.9332ZM95.8434 49.4837C97.6871 49.4837 99.3974 50.3996 100.42 51.9334L101.252 51.3786C100.044 49.5668 98.0217 48.4837 95.8434 48.4837V49.4837ZM19.1867 49.4837H95.8434V48.4837H19.1867V49.4837ZM87.0061 92.3349C80.3155 92.3349 74.8734 97.777 74.8734 104.468H75.8734C75.8734 98.3293 80.8678 93.3349 87.0061 93.3349V92.3349ZM99.1388 104.468C99.1388 97.777 93.6967 92.3349 87.0061 92.3349V93.3349C93.1444 93.3349 98.1388 98.3293 98.1388 104.468H99.1388ZM87.0061 116.6C93.6967 116.6 99.1388 111.158 99.1388 104.468H98.1388C98.1388 110.606 93.1444 115.6 87.0061 115.6V116.6ZM74.8734 104.468C74.8734 111.158 80.3155 116.6 87.0061 116.6V115.6C80.8678 115.6 75.8734 110.606 75.8734 104.468H74.8734ZM79.0911 104.468C79.0911 100.104 82.6421 96.5526 87.0061 96.5526V95.5526C82.0899 95.5526 78.0911 99.5513 78.0911 104.468H79.0911ZM87.0061 112.383C82.6421 112.383 79.0911 108.832 79.0911 104.468H78.0911C78.0911 109.384 82.0899 113.383 87.0061 113.383V112.383ZM94.9212 104.468C94.9212 108.832 91.3701 112.383 87.0061 112.383V113.383C91.9224 113.383 95.9212 109.384 95.9212 104.468H94.9212ZM87.0061 96.5526C91.3701 96.5526 94.9212 100.104 94.9212 104.468H95.9212C95.9212 99.5513 91.9224 95.5526 87.0061 95.5526V96.5526ZM81.5394 104.468C81.5394 101.454 83.9919 99.0009 87.0061 99.0009V98.0009C83.4395 98.0009 80.5394 100.902 80.5394 104.468H81.5394ZM87.0061 109.934C83.9919 109.934 81.5394 107.481 81.5394 104.468H80.5394C80.5394 108.033 83.4395 110.934 87.0061 110.934V109.934ZM92.4736 104.468C92.4736 107.481 90.0204 109.934 87.0061 109.934V110.934C90.5726 110.934 93.4736 108.033 93.4736 104.468H92.4736ZM87.0061 99.0009C90.0204 99.0009 92.4736 101.454 92.4736 104.468H93.4736C93.4736 100.902 90.5726 98.0009 87.0061 98.0009V99.0009ZM83.757 104.468C83.757 106.259 85.2138 107.717 87.0061 107.717V106.717C85.7663 106.717 84.757 105.707 84.757 104.468H83.757ZM87.0061 101.219C85.2138 101.219 83.757 102.676 83.757 104.468H84.757C84.757 103.228 85.7663 102.219 87.0061 102.219V101.219ZM90.256 104.468C90.256 102.675 88.7981 101.219 87.0061 101.219V102.219C88.2462 102.219 89.256 103.228 89.256 104.468H90.256ZM87.0061 107.717C88.7981 107.717 90.256 106.26 90.256 104.468H89.256C89.256 105.707 88.2462 106.717 87.0061 106.717V107.717ZM90.7507 74.7615H106.381V73.7615H90.7507V74.7615ZM90.3963 74.6143L90.3971 74.6151L91.1042 73.908L91.1034 73.9072L90.3963 74.6143ZM87.0762 71.0871C87.0762 73.1137 88.7243 74.7607 90.7499 74.7607V73.7607C89.2764 73.7607 88.0762 72.5612 88.0762 71.0871H87.0762ZM87.0762 55.0414V71.0871H88.0762V55.0414H87.0762ZM90.7499 51.367C88.7232 51.367 87.0762 53.0151 87.0762 55.0414H88.0762C88.0762 53.567 89.2758 52.367 90.7499 52.367V51.367ZM94.9542 51.367H90.7499V52.367H94.9542V51.367ZM99.9234 54.0949C98.8369 52.3874 96.9778 51.367 94.9542 51.367V52.367C96.6359 52.367 98.1768 53.2128 99.0797 54.6318L99.9234 54.0949ZM109.481 69.1147L99.9234 54.0949L99.0797 54.6318L108.637 69.6516L109.481 69.1147ZM109.602 72.8557C110.247 71.6802 110.201 70.2466 109.481 69.1148L108.637 69.6515C109.162 70.4755 109.195 71.5191 108.726 72.3746L109.602 72.8557ZM106.381 74.7615C107.723 74.7615 108.956 74.0312 109.602 72.856L108.726 72.3743C108.255 73.2301 107.357 73.7615 106.381 73.7615V74.7615ZM96.3661 56.3613L105.961 71.3139L106.802 70.7739L97.2077 55.8213L96.3661 56.3613ZM96.4341 55.7369L96.4333 55.7377L97.1404 56.4448L97.1412 56.444L96.4341 55.7369ZM94.955 55.5846C95.5298 55.5846 96.0563 55.8736 96.3661 56.3594L97.2092 55.8216C96.7162 55.0487 95.8723 54.5846 94.955 54.5846V55.5846ZM90.7507 55.5846H94.955V54.5846H90.7507V55.5846ZM91.2938 71.0858L91.2506 55.0832L90.2507 55.0859L90.2938 71.0885L91.2938 71.0858ZM106.38 70.5439L90.7924 70.5871L90.7952 71.5871L106.383 71.5439L106.38 70.5439ZM84.1012 73.7617H67.2478V74.7617H84.1012V73.7617ZM86.8068 71.056C86.8068 72.5471 85.5929 73.7617 84.1012 73.7617V74.7617C86.1453 74.7617 87.8068 73.0992 87.8068 71.056H86.8068ZM86.8068 55.0743V71.056H87.8068V55.0743H86.8068ZM84.1012 52.3687C85.5922 52.3687 86.8068 53.5826 86.8068 55.0743H87.8068C87.8068 53.0301 86.1443 51.3687 84.1012 51.3687V52.3687ZM67.2478 52.3687H84.1012V51.3687H67.2478V52.3687ZM64.5422 55.0743C64.5422 53.5832 65.7561 52.3687 67.2478 52.3687V51.3687C65.2037 51.3687 63.5422 53.0311 63.5422 55.0743H64.5422ZM64.5422 71.056V55.0743H63.5422V71.056H64.5422ZM67.2478 73.7617C65.7568 73.7617 64.5422 72.5477 64.5422 71.056H63.5422C63.5422 73.1002 65.2047 74.7617 67.2478 74.7617V73.7617ZM67.2602 71.556L84.0903 71.544L84.0896 70.544L67.2595 70.556L67.2602 71.556ZM66.7478 55.0859L66.7598 71.0564L67.7598 71.0557L67.7478 55.0851L66.7478 55.0859ZM84.0896 54.5735L67.2475 54.5855L67.2482 55.5855L84.0903 55.5735L84.0896 54.5735ZM84.59 71.044V55.0735H83.59V71.044H84.59ZM42.8422 74.7617H59.6955V73.7617H42.8422V74.7617ZM39.1366 71.056C39.1366 73.1002 40.799 74.7617 42.8422 74.7617V73.7617C41.3512 73.7617 40.1366 72.5477 40.1366 71.056H39.1366ZM39.1366 55.0743V71.056H40.1366V55.0743H39.1366ZM42.8422 51.3687C40.7981 51.3687 39.1366 53.0311 39.1366 55.0743H40.1366C40.1366 53.5832 41.3505 52.3687 42.8422 52.3687V51.3687ZM59.6955 51.3687H42.8422V52.3687H59.6955V51.3687ZM63.4011 55.0743C63.4011 53.0301 61.7387 51.3687 59.6955 51.3687V52.3687C61.1866 52.3687 62.4011 53.5826 62.4011 55.0743H63.4011ZM63.4011 71.056V55.0743H62.4011V71.056H63.4011ZM59.6955 74.7617C61.7397 74.7617 63.4011 73.0992 63.4011 71.056H62.4011C62.4011 72.5471 61.1872 73.7617 59.6955 73.7617V74.7617ZM59.1843 55.0735V71.044H60.1843V55.0735H59.1843ZM42.8426 55.5855L59.6847 55.5735L59.684 54.5735L42.8419 54.5855L42.8426 55.5855ZM43.3542 71.0557L43.3422 55.0851L42.3422 55.0859L42.3542 71.0564L43.3542 71.0557ZM59.684 70.544L42.8539 70.556L42.8546 71.556L59.6847 71.544L59.684 70.544ZM36.1615 73.7617H19.3074V74.7617H36.1615V73.7617ZM38.8671 71.056C38.8671 72.5471 37.6532 73.7617 36.1615 73.7617V74.7617C38.2056 74.7617 39.8671 73.0992 39.8671 71.056H38.8671ZM38.8671 55.0743V71.056H39.8671V55.0743H38.8671ZM36.1615 52.3687C37.6533 52.3687 38.8671 53.5825 38.8671 55.0743H39.8671C39.8671 53.0302 38.2056 51.3687 36.1615 51.3687V52.3687ZM19.3074 52.3687H36.1615V51.3687H19.3074V52.3687ZM16.6018 55.0743C16.6018 53.5832 17.8157 52.3687 19.3074 52.3687V51.3687C17.2632 51.3687 15.6018 53.0311 15.6018 55.0743H16.6018ZM16.6018 71.056V55.0743H15.6018V71.056H16.6018ZM19.3074 73.7617C17.8163 73.7617 16.6018 72.5477 16.6018 71.056H15.6018C15.6018 73.1002 17.2642 74.7617 19.3074 74.7617V73.7617ZM19.3197 71.556L36.1499 71.544L36.1491 70.544L19.319 70.556L19.3197 71.556ZM18.8074 55.0859L18.8194 71.0564L19.8194 71.0557L19.8074 55.0851L18.8074 55.0859ZM36.1491 54.5735L19.307 54.5855L19.3077 55.5855L36.1499 55.5735L36.1491 54.5735ZM36.6495 71.044V55.0735H35.6495V71.044H36.6495ZM107.125 77.0106V89.2134H108.125V77.0106H107.125ZM109.234 74.9018C108.069 74.9018 107.125 75.8461 107.125 77.0106H108.125C108.125 76.3984 108.621 75.9018 109.234 75.9018V74.9018ZM111.342 77.0106C111.342 75.8461 110.398 74.9018 109.234 74.9018V75.9018C109.846 75.9018 110.342 76.3984 110.342 77.0106H111.342ZM111.342 89.2134V77.0106H110.342V89.2134H111.342ZM109.234 91.3222C110.398 91.3222 111.342 90.3779 111.342 89.2134H110.342C110.342 89.8256 109.846 90.3222 109.234 90.3222V91.3222ZM107.125 89.2134C107.125 90.3779 108.069 91.3222 109.234 91.3222V90.3222C108.621 90.3222 108.125 89.8256 108.125 89.2134H107.125ZM93.5437 78.5174H98.7739V77.5174H93.5437V78.5174ZM92.4349 79.6262C92.4349 79.014 92.9315 78.5174 93.5437 78.5174V77.5174C92.3792 77.5174 91.4349 78.4617 91.4349 79.6262H92.4349ZM93.5437 80.735C92.9315 80.735 92.4349 80.2384 92.4349 79.6262H91.4349C91.4349 80.7907 92.3792 81.735 93.5437 81.735V80.735ZM98.7739 80.735H93.5437V81.735H98.7739V80.735ZM99.8827 79.6262C99.8827 80.2384 99.3862 80.735 98.7739 80.735V81.735C99.9384 81.735 100.883 80.7907 100.883 79.6262H99.8827ZM98.7739 78.5174C99.3862 78.5174 99.8827 79.014 99.8827 79.6262H100.883C100.883 78.4617 99.9384 77.5174 98.7739 77.5174V78.5174ZM73.496 77.5174H68.2657V78.5174H73.496V77.5174ZM75.6048 79.6262C75.6048 78.4617 74.6605 77.5174 73.496 77.5174V78.5174C74.1082 78.5174 74.6048 79.014 74.6048 79.6262H75.6048ZM73.496 81.735C74.6605 81.735 75.6048 80.7907 75.6048 79.6262H74.6048C74.6048 80.2384 74.1082 80.735 73.496 80.735V81.735ZM68.2657 81.735H73.496V80.735H68.2657V81.735ZM66.1569 79.6262C66.1569 80.7907 67.1012 81.735 68.2657 81.735V80.735C67.6535 80.735 67.1569 80.2384 67.1569 79.6262H66.1569ZM68.2657 77.5174C67.1012 77.5174 66.1569 78.4617 66.1569 79.6262H67.1569C67.1569 79.014 67.6535 78.5174 68.2657 78.5174V77.5174ZM58.0731 42.6015C58.3579 42.6015 58.6464 42.5436 58.922 42.4225L58.5197 41.507C58.373 41.5714 58.2217 41.6015 58.0731 41.6015V42.6015ZM56.1425 41.3416C56.4899 42.1318 57.264 42.6015 58.0731 42.6015V41.6015C57.6461 41.6015 57.24 41.3531 57.058 40.9391L56.1425 41.3416ZM57.2223 38.5622C56.1563 39.0318 55.6731 40.276 56.1427 41.3419L57.0578 40.9388C56.8109 40.3783 57.0649 39.7243 57.6254 39.4774L57.2223 38.5622ZM66.4794 34.4874L57.2224 38.5622L57.6253 39.4774L66.8823 35.4026L66.4794 34.4874ZM69.2598 35.5678C68.7904 34.5021 67.5455 34.0178 66.4793 34.4874L66.8825 35.4026C67.4427 35.1558 68.0977 35.4102 68.3447 35.971L69.2598 35.5678ZM68.1794 38.3475C69.2453 37.878 69.7284 36.6339 69.26 35.5682L68.3445 35.9706C68.591 36.5313 68.3368 37.1855 67.7763 37.4324L68.1794 38.3475ZM58.9223 42.4224L68.1793 38.3476L67.7764 37.4323L58.5194 41.5071L58.9223 42.4224ZM58.5197 36.3806C58.373 36.4451 58.2217 36.4751 58.0731 36.4751V37.4751C58.3579 37.4751 58.6464 37.4172 58.922 37.2961L58.5197 36.3806ZM67.7764 32.3059L58.5194 36.3807L58.9223 37.296L68.1793 33.2212L67.7764 32.3059ZM68.3445 30.8442C68.591 31.4049 68.3368 32.0591 67.7763 32.306L68.1794 33.2211C69.2453 32.7516 69.7284 31.5075 69.26 30.4418L68.3445 30.8442ZM66.8825 30.2762C67.4427 30.0294 68.0977 30.2839 68.3447 30.8446L69.2598 30.4414C68.7904 29.3758 67.5455 28.8914 66.4793 29.361L66.8825 30.2762ZM57.6253 34.351L66.8823 30.2762L66.4794 29.361L57.2224 33.4358L57.6253 34.351ZM57.0578 35.8124C56.8109 35.2519 57.0649 34.5979 57.6254 34.351L57.2223 33.4358C56.1563 33.9054 55.6731 35.1496 56.1427 36.2155L57.0578 35.8124ZM58.0731 36.4751C57.6461 36.4751 57.24 36.2267 57.058 35.8128L56.1425 36.2152C56.4899 37.0054 57.264 37.4751 58.0731 37.4751V36.4751ZM75.0225 36.1961L65.7662 40.2709L66.1691 41.1861L75.4254 37.1113L75.0225 36.1961ZM77.8019 37.2762C77.3319 36.2117 76.09 35.7252 75.0221 36.1962L75.4257 37.1112C75.9858 36.8641 76.639 37.1181 76.8871 37.6801L77.8019 37.2762ZM76.7216 40.0562C77.7876 39.5867 78.2706 38.3426 77.8022 37.2769L76.8867 37.6793C77.1332 38.24 76.879 38.8942 76.3185 39.1411L76.7216 40.0562ZM67.4645 44.1311L76.7215 40.0563L76.3186 39.141L67.0616 43.2158L67.4645 44.1311ZM66.6162 44.3102C66.9009 44.3102 67.1896 44.2523 67.4648 44.1309L67.0613 43.216C66.9159 43.2801 66.7648 43.3102 66.6162 43.3102V44.3102ZM64.685 43.0508C65.0331 43.8403 65.806 44.3102 66.6162 44.3102V43.3102C66.1886 43.3102 65.7828 43.062 65.6 42.6474L64.685 43.0508ZM65.7661 40.2709C64.7006 40.7403 64.2162 41.9842 64.6847 43.0503L65.6002 42.6479C65.3539 42.0876 65.6084 41.4331 66.1692 41.1861L65.7661 40.2709ZM50.2426 29.3074H37.5952V30.3074H50.2426V29.3074ZM54.034 27.5416C53.0894 28.6642 51.7077 29.3074 50.2426 29.3074V30.3074C52.0031 30.3074 53.6647 29.5337 54.7991 28.1855L54.034 27.5416ZM55.1193 23.4761C55.3735 24.9406 54.9764 26.4215 54.0339 27.5417L54.7991 28.1854C55.9341 26.8365 56.4085 25.0565 56.1046 23.3051L55.1193 23.4761ZM52.1219 19.7806C53.6887 20.4243 54.8366 21.8449 55.1193 23.4759L56.1046 23.3052C55.762 21.3284 54.38 19.6273 52.502 18.8557L52.1219 19.7806ZM49.6429 19.4391C50.4705 19.3337 51.3092 19.4462 52.1217 19.7805L52.5022 18.8558C51.5348 18.4577 50.5217 18.3191 49.5165 18.4471L49.6429 19.4391ZM44.2623 16.838C46.2222 16.838 48.0178 17.7385 49.184 19.2487L49.9755 18.6376C48.6212 16.8837 46.534 15.838 44.2623 15.838V16.838ZM38.7912 20.0802C39.8579 18.1125 41.9236 16.838 44.2623 16.838V15.838C41.5523 15.838 39.1515 17.3174 37.9121 19.6036L38.7912 20.0802ZM33.9538 21.8799C34.9948 20.6332 36.6763 20.0335 38.2586 20.3332L38.4447 19.3506C36.5055 18.9834 34.4593 19.7143 33.1862 21.239L33.9538 21.8799ZM32.977 25.6158C32.7343 24.2716 33.092 22.9115 33.9537 21.88L33.1863 21.2389C32.1322 22.5007 31.6982 24.1615 31.9929 25.7935L32.977 25.6158ZM37.5952 29.3074C35.2883 29.3074 33.3604 27.7384 32.977 25.6157L31.9929 25.7935C32.4682 28.4253 34.839 30.3074 37.5952 30.3074V29.3074ZM40.3529 22.1637C40.2714 22.5154 40.0239 22.8052 39.6895 22.9408L40.0651 23.8675C40.7014 23.6097 41.172 23.0583 41.3271 22.3897L40.3529 22.1637ZM44.2615 19.0564C42.3856 19.0564 40.7764 20.3357 40.3529 22.1639L41.3271 22.3895C41.6456 21.0145 42.8511 20.0564 44.2615 20.0564V19.0564ZM47.851 21.2794C47.1646 19.9104 45.7881 19.0564 44.2615 19.0564V20.0564C45.4072 20.0564 46.4391 20.6945 46.957 21.7276L47.851 21.2794ZM49.2478 21.8144C48.7125 22.0241 48.1076 21.7916 47.851 21.2795L46.957 21.7275C47.4456 22.7026 48.5966 23.1434 49.6126 22.7455L49.2478 21.8144ZM51.2781 21.8328C50.602 21.5544 49.9262 21.548 49.2475 21.8145L49.6129 22.7453C50.0504 22.5736 50.4588 22.5768 50.8974 22.7574L51.2781 21.8328ZM52.9334 23.8564C52.7795 22.9648 52.1273 22.1815 51.2777 21.8326L50.8978 22.7576C51.446 22.9828 51.8556 23.4916 51.948 24.0265L52.9334 23.8564ZM52.3353 26.1148C52.866 25.4849 53.0762 24.6764 52.9333 23.8557L51.9481 24.0273C52.0419 24.5659 51.905 25.0735 51.5706 25.4704L52.3353 26.1148ZM50.241 27.0906C51.051 27.0906 51.8147 26.734 52.3357 26.1143L51.5702 25.4708C51.2388 25.865 50.7551 26.0906 50.241 26.0906V27.0906ZM37.5936 27.0906H50.241V26.0906H37.5936V27.0906ZM35.1578 25.2228C35.359 26.3341 36.4409 27.0906 37.5936 27.0906V26.0906C36.8304 26.0906 36.2411 25.5932 36.1418 25.0446L35.1578 25.2228ZM35.6539 23.3034C35.2052 23.8403 35.0325 24.5272 35.1577 25.2223L36.1418 25.0451C36.0671 24.6303 36.1695 24.2458 36.4212 23.9447L35.6539 23.3034ZM37.4265 22.474C36.7408 22.474 36.0942 22.7765 35.6539 23.3034L36.4212 23.9446C36.6718 23.6448 37.0375 23.474 37.4265 23.474V22.474ZM38.6709 22.8458C38.2968 22.6042 37.8665 22.474 37.4265 22.474V23.474C37.6678 23.474 37.9107 23.5452 38.1283 23.6858L38.6709 22.8458ZM39.6885 22.9413C39.3531 23.0767 38.9732 23.0409 38.6708 22.8457L38.1285 23.6859C38.7056 24.0584 39.4275 24.125 40.0628 23.8686L39.6885 22.9413ZM39.6537 22.9569L39.6521 22.9577L40.0993 23.8522L40.1009 23.8514L39.6537 22.9569ZM21.8766 41.6387H30.3084V40.6387H21.8766V41.6387ZM21.5238 40.7844L21.523 40.7852L22.2301 41.4923L22.2309 41.4915L21.5238 40.7844ZM17.4512 38.0506C17.8286 40.1439 19.7034 41.6379 21.8774 41.6379V40.6379C20.1572 40.6379 18.7217 39.4613 18.4354 37.8732L17.4512 38.0506ZM18.3984 34.4396C17.561 35.4415 17.2173 36.7594 17.4513 38.051L18.4353 37.8727C18.2535 36.8695 18.5207 35.8526 19.1657 35.0809L18.3984 34.4396ZM22.1455 32.8813C20.7203 32.7548 19.3159 33.3418 18.3984 34.4396L19.1657 35.0809C19.8747 34.2325 20.9603 33.78 22.057 33.8774L22.1455 32.8813ZM26.3224 30.5869C24.3962 30.5869 22.6742 31.5654 21.6808 33.1087L22.5217 33.65C23.3338 32.3882 24.7415 31.5869 26.3224 31.5869V30.5869ZM30.4783 32.4712C29.4444 31.2841 27.9446 30.5869 26.3224 30.5869V31.5869C27.6539 31.5869 28.8792 32.1578 29.7243 33.128L30.4783 32.4712ZM32.1741 32.6897C31.4954 32.3947 30.785 32.2624 30.0747 32.3003L30.128 33.2989C30.6763 33.2696 31.2324 33.3708 31.7755 33.6068L32.1741 32.6897ZM34.8347 35.7918C34.4903 34.4171 33.493 33.2621 32.1739 32.6896L31.7758 33.6069C32.8186 34.0595 33.5981 34.9707 33.8646 36.0348L34.8347 35.7918ZM33.9921 39.84C34.8859 38.6952 35.1912 37.2178 34.8347 35.792L33.8646 36.0346C34.1478 37.1675 33.9045 38.3273 33.2039 39.2246L33.9921 39.84ZM30.3084 41.6387C31.7562 41.6387 33.1011 40.9824 33.9923 39.8398L33.2037 39.2248C32.5021 40.1244 31.4481 40.6387 30.3084 40.6387V41.6387ZM21.8525 37.1114C22.4295 37.4838 23.1524 37.5506 23.7871 37.294L23.4123 36.3669C23.0779 36.5021 22.6973 36.4665 22.3948 36.2712L21.8525 37.1114ZM21.8984 37.1377L21.9 37.1385L22.3472 36.2441L22.3456 36.2433L21.8984 37.1377ZM21.7638 37.0818C21.7871 37.0818 21.8148 37.0874 21.8517 37.1111L22.3924 36.2699C22.2053 36.1497 21.9916 36.0818 21.7638 36.0818V37.0818ZM21.6322 37.1443C21.6663 37.1036 21.7145 37.0818 21.7638 37.0818V36.0818C21.4149 36.0818 21.0873 36.2374 20.8656 36.5022L21.6322 37.1443ZM21.5993 37.3011C21.5898 37.2485 21.5962 37.2168 21.602 37.1986C21.6087 37.1776 21.62 37.1589 21.6332 37.1431L20.8645 36.5034C20.7042 36.6961 20.5339 37.0292 20.6153 37.4792L21.5993 37.3011ZM21.875 37.4211C21.7939 37.4211 21.714 37.3939 21.6565 37.3541C21.5954 37.3119 21.5962 37.2836 21.5994 37.3014L20.6153 37.4789C20.6713 37.7893 20.8707 38.0265 21.0877 38.1766C21.3083 38.3292 21.5859 38.4211 21.875 38.4211V37.4211ZM30.3068 37.4211H21.875V38.4211H30.3068V37.4211ZM30.6661 37.2446C30.577 37.3585 30.4477 37.4211 30.3068 37.4211V38.4211C30.7577 38.4211 31.1768 38.215 31.454 37.8604L30.6661 37.2446ZM30.7414 36.8168C30.7983 37.0441 30.7135 37.1837 30.6656 37.2452L31.4545 37.8598C31.6209 37.6462 31.8672 37.1957 31.7114 36.5738L30.7414 36.8168ZM30.4921 36.559C30.6337 36.6205 30.7225 36.741 30.7412 36.8162L31.7115 36.5744C31.6071 36.1554 31.2753 35.809 30.8907 35.6418L30.4921 36.559ZM30.145 36.5487C30.2682 36.5 30.3553 36.4996 30.4924 36.5591L30.8905 35.6417C30.5191 35.4805 30.1567 35.4689 29.7777 35.6186L30.145 36.5487ZM27.489 35.5312C27.9775 36.5061 29.1303 36.9474 30.1443 36.549L29.7785 35.6182C29.2461 35.8275 28.6397 35.5955 28.383 35.0832L27.489 35.5312ZM26.3208 34.8045C26.8168 34.8045 27.2634 35.08 27.4888 35.5308L28.3832 35.0836C27.9897 34.2966 27.1985 33.8045 26.3208 33.8045V34.8045ZM25.0495 35.816C25.1881 35.2186 25.7094 34.8045 26.3208 34.8045V33.8045C25.2434 33.8045 24.319 34.5402 24.0754 35.59L25.0495 35.816ZM23.7875 37.2938C24.4238 37.036 24.8944 36.4846 25.0495 35.816L24.0754 35.59C23.9938 35.9417 23.7463 36.2315 23.4119 36.367L23.7875 37.2938ZM23.5752 104.468C23.5752 98.3293 28.5695 93.3349 34.7078 93.3349V92.3349C28.0173 92.3349 22.5752 97.777 22.5752 104.468H23.5752ZM34.7078 115.6C28.5695 115.6 23.5752 110.606 23.5752 104.468H22.5752C22.5752 111.158 28.0173 116.6 34.7078 116.6V115.6ZM45.8405 104.468C45.8405 110.606 40.8462 115.6 34.7078 115.6V116.6C41.3984 116.6 46.8405 111.158 46.8405 104.468H45.8405ZM34.7078 93.3349C40.8462 93.3349 45.8405 98.3293 45.8405 104.468H46.8405C46.8405 97.777 41.3984 92.3349 34.7078 92.3349V93.3349ZM25.7928 104.468C25.7928 109.384 29.7916 113.383 34.7078 113.383V112.383C30.3439 112.383 26.7928 108.832 26.7928 104.468H25.7928ZM34.7078 95.5526C29.7916 95.5526 25.7928 99.5513 25.7928 104.468H26.7928C26.7928 100.104 30.3439 96.5526 34.7078 96.5526V95.5526ZM43.6229 104.468C43.6229 99.5513 39.6241 95.5526 34.7078 95.5526V96.5526C39.0718 96.5526 42.6229 100.104 42.6229 104.468H43.6229ZM34.7078 113.383C39.6241 113.383 43.6229 109.384 43.6229 104.468H42.6229C42.6229 108.832 39.0718 112.383 34.7078 112.383V113.383ZM34.7078 98.0009C31.1413 98.0009 28.2404 100.902 28.2404 104.468H29.2404C29.2404 101.454 31.6935 99.0009 34.7078 99.0009V98.0009ZM41.1745 104.468C41.1745 100.902 38.2744 98.0009 34.7078 98.0009V99.0009C37.722 99.0009 40.1745 101.454 40.1745 104.468H41.1745ZM34.7078 110.934C38.2744 110.934 41.1745 108.033 41.1745 104.468H40.1745C40.1745 107.481 37.722 109.934 34.7078 109.934V110.934ZM28.2404 104.468C28.2404 108.033 31.1413 110.934 34.7078 110.934V109.934C31.6935 109.934 29.2404 107.481 29.2404 104.468H28.2404ZM34.7078 106.717C33.4678 106.717 32.458 105.707 32.458 104.468H31.458C31.458 106.259 32.9157 107.717 34.7078 107.717V106.717ZM36.9569 104.468C36.9569 105.707 35.947 106.717 34.7078 106.717V107.717C36.4991 107.717 37.9569 106.26 37.9569 104.468H36.9569ZM34.7078 102.219C35.9484 102.219 36.9569 103.228 36.9569 104.468H37.9569C37.9569 102.675 36.5009 101.219 34.7078 101.219V102.219ZM32.458 104.468C32.458 103.228 33.4671 102.219 34.7078 102.219V101.219C32.9148 101.219 31.458 102.676 31.458 104.468H32.458Z" fill="#262523" mask="url(#path-1-inside-1_2049_2791)"/>
</svg>
