<svg width="192" height="128" viewBox="0 0 192 128" fill="none" xmlns="http://www.w3.org/2000/svg">
<mask id="path-1-inside-1_2049_1191" fill="white">
<path d="M161.276 66.9547L172.71 70.3289L180.836 72.7262C181.59 72.9476 182.107 73.6409 182.107 74.4279V83.9437C182.107 84.5109 181.836 85.0434 181.379 85.3771C181.072 85.6009 180.704 85.7181 180.333 85.7181C180.151 85.7181 179.968 85.6906 179.79 85.6324L167.079 81.5504L163.904 89.4139C163.634 90.0853 162.982 90.5241 162.259 90.5241H162.253L152.529 90.495L148.718 95.4537C148.382 95.89 147.862 96.1469 147.311 96.1469H136.548C136.59 96.6067 136.619 97.0697 136.619 97.5399C136.619 106.02 129.718 112.92 121.238 112.92C113.243 112.92 106.658 106.784 105.931 98.9757C105.886 98.5023 105.858 98.0247 105.858 97.5399C105.858 97.0551 105.887 96.6067 105.928 96.1469H63.6531C63.6943 96.6067 63.7234 97.0697 63.7234 97.5399C63.7234 106.02 56.8231 112.92 48.3431 112.92C39.8632 112.92 32.9628 106.02 32.9628 97.5399C32.9628 97.0333 32.9911 96.534 33.0388 96.0395H30.4241C30.3562 96.0476 30.29 96.0613 30.2197 96.0613L17.408 96.1469H15.0099C12.9034 96.1469 11.0895 94.644 10.6992 92.5748L10.2096 89.9851C10.0181 88.9735 10.2815 87.9417 10.9311 87.1579C11.5524 86.4081 12.4582 85.9791 13.4157 85.9791H15.6215V63.3284C15.6215 62.3855 15.8801 60.7937 16.335 58.6687C17.0582 55.2888 18.2807 50.5507 19.773 44.8567C20.5633 41.8421 21.309 38.9939 21.7389 37.1532C21.9239 36.3598 22.1647 35.6188 22.4322 34.9038C22.4524 34.8472 22.4742 34.7931 22.4992 34.7397C23.0996 33.186 23.8761 31.8075 24.857 30.6577C26.8164 28.363 29.3996 26.852 32.1678 26.3018C32.3916 24.5872 32.7915 21.4651 33.08 19.1979C33.1931 18.3123 33.9478 17.6481 34.8398 17.6481H39.7622C40.6364 17.6481 41.3806 18.2848 41.5155 19.1486L42.5958 26.0586H65.8517C66.8309 26.0586 67.626 26.8529 67.626 27.833V63.9611H85.0942C85.3495 63.9611 85.5919 63.9643 85.8286 63.9691C81.5559 62.9212 78.4993 58.9361 78.7797 54.3943C78.9332 51.9219 80.0401 49.6554 81.8969 48.0152C83.7553 46.3749 86.147 45.5524 88.6122 45.7083C91.0847 45.861 93.3511 46.9672 94.9914 48.8248C96.6324 50.6824 97.4518 53.0668 97.299 55.5401C97.0098 60.199 93.3083 63.8471 88.7827 64.2091C90.6807 64.5186 91.7085 65.0898 92.7322 65.7686C93.7406 66.4376 94.5963 67.0145 98.9207 66.8852H160.77C160.94 66.8844 161.109 66.9086 161.272 66.9571L161.276 66.9547ZM93.7616 55.3179C93.8561 53.7908 93.3495 52.3186 92.3363 51.1712C91.3231 50.0239 89.9244 49.3419 88.3965 49.2474C86.8669 49.1617 85.3956 49.6595 84.2498 50.6719C83.1033 51.6851 82.4189 53.0838 82.3244 54.6117C82.1304 57.7637 84.5359 60.4883 87.6895 60.6838C90.8003 60.8777 93.5661 58.4731 93.7616 55.3187V55.3179ZM161.064 86.9721L163.692 80.4628L160.69 79.4989L160.491 79.4351L157.434 79.4221L67.6292 79.0327V92.599H106.689C108.753 86.5382 114.489 82.1605 121.239 82.1605C127.989 82.1605 133.725 86.539 135.79 92.599H146.437L150.25 87.6379C150.587 87.2016 151.106 86.9446 151.657 86.9446H151.663L161.063 86.9721H161.064ZM121.24 85.7068C114.715 85.7068 109.409 91.0137 109.409 97.5383C109.409 104.063 114.715 109.37 121.24 109.37C127.765 109.37 133.072 104.063 133.072 97.5383C133.072 91.0137 127.765 85.7068 121.24 85.7068ZM48.3455 109.371C54.8701 109.371 60.1771 104.064 60.1771 97.5391C60.1771 91.0145 54.8701 85.7076 48.3455 85.7076C41.8209 85.7076 36.514 91.0145 36.514 97.5391C36.514 104.064 41.8209 109.371 48.3455 109.371ZM62.896 92.5974H64.0813V79.027H45.1968C43.2099 79.027 41.3305 79.5514 39.6377 80.4628C35.5751 82.6509 32.6299 87.1466 32.0845 92.4899H33.8339C35.3957 88.016 38.9598 84.4827 43.4555 82.9693C44.9939 82.4513 46.635 82.1588 48.3455 82.1588C55.0713 82.1588 60.7895 86.5067 62.8726 92.5335C62.8798 92.5554 62.8887 92.5764 62.896 92.5974ZM15.0131 92.5974H15.6256V89.5254H13.6888L14.189 91.9154C14.2641 92.3105 14.6107 92.5982 15.0139 92.5982L15.0131 92.5974ZM36.4065 21.1936C36.1819 22.9567 35.9532 24.7343 35.7811 26.0562H39.0075L38.2472 21.1936H36.4057H36.4065ZM27.5605 32.9581C27.361 33.1924 27.18 33.4582 26.9982 33.7241H43.4289C46.8903 33.7241 50.2136 35.1437 52.7855 37.7213C55.7597 40.7036 57.4598 44.9803 57.4485 49.455L57.4105 75.4791H64.0813V29.6041H34.4762C31.864 29.6041 29.4068 30.7951 27.5597 32.9581H27.5605ZM23.2078 45.7544C21.5054 52.2523 19.1735 61.1516 19.1735 63.3268V92.5861L28.5091 92.5239C29.3034 82.9765 36.4841 75.4799 45.1968 75.4799H53.8618L53.8997 49.4486C53.9086 45.9071 52.5867 42.5474 50.2734 40.2285C48.3722 38.3224 45.9409 37.2728 43.4289 37.2728H25.3951C25.3305 37.5023 25.2545 37.7213 25.1988 37.9588C24.7576 39.8463 24.0053 42.7163 23.2087 45.7552L23.2078 45.7544ZM178.559 75.753L160.516 70.4299H98.9764C93.9854 70.5745 92.4252 69.8174 90.7728 68.7226C89.8307 68.0964 88.9411 67.5066 85.0974 67.5066H66.7897V75.4799H66.797L160.78 75.8879C160.961 75.8887 161.141 75.9178 161.315 75.9736L178.558 81.5108V75.7546L178.559 75.753ZM22.9113 65.8736C22.1583 65.1052 21.9183 63.999 22.2843 62.9858C23.3654 59.9954 25.421 54.2109 26.7897 50.3527C27.8579 47.3429 30.7021 45.3205 33.8662 45.3205H48.6526C49.6319 45.3205 50.4269 46.1148 50.4269 47.0949V53.3229C50.4269 56.2309 48.5952 58.806 45.8682 59.7296L25.7563 66.5547C25.463 66.6541 25.1624 66.7026 24.8659 66.7026C24.1427 66.7026 23.4405 66.4141 22.9113 65.8744V65.8736ZM30.1348 51.5397C28.9697 54.8226 27.3085 59.4969 26.1708 62.6642L44.7281 56.3675C46.0145 55.932 46.879 54.7078 46.879 53.3221V48.8684H33.867C32.2017 48.8684 30.7012 49.9415 30.1348 51.5397ZM48.6526 63.1523H43.71C42.7307 63.1523 41.9357 63.9465 41.9357 64.9266C41.9357 65.9067 42.7299 66.701 43.71 66.701H48.6526C49.6319 66.701 50.4269 65.9067 50.4269 64.9266C50.4269 63.9465 49.6327 63.1523 48.6526 63.1523ZM130.28 97.4349C130.28 102.419 126.225 106.474 121.24 106.474C116.256 106.474 112.201 102.419 112.201 97.4349C112.201 92.4511 116.256 88.3958 121.24 88.3958C126.224 88.3958 130.28 92.4511 130.28 97.4349ZM121.24 91.9437C118.212 91.9437 115.749 94.4073 115.749 97.4349C115.749 100.462 118.212 102.926 121.24 102.926C124.268 102.926 126.732 100.462 126.732 97.4349C126.732 94.4073 124.268 91.9437 121.24 91.9437ZM57.3854 97.4349C57.3854 102.419 53.3301 106.474 48.3455 106.474C43.361 106.474 39.3064 102.419 39.3064 97.4349C39.3064 92.4511 43.3618 88.3958 48.3455 88.3958C53.3293 88.3958 57.3854 92.4511 57.3854 97.4349ZM48.3455 102.926C51.3739 102.926 53.8375 100.462 53.8375 97.4349C53.8375 94.4073 51.3739 91.9437 48.3455 91.9437C45.3172 91.9437 42.8544 94.4073 42.8544 97.4349C42.8544 100.462 45.318 102.926 48.3455 102.926ZM88.3755 51.1098C87.3784 51.0686 86.555 51.795 86.4952 52.7711C86.4355 53.7496 87.178 54.5915 88.1565 54.6513C88.2809 54.6594 88.3763 54.7668 88.3682 54.8905C88.365 54.9527 88.3391 55.0052 88.2922 55.0456C88.2462 55.086 88.188 55.1054 88.1314 55.1013C87.1707 55.0504 86.311 55.7825 86.2496 56.761C86.1882 57.7378 86.9308 58.5814 87.9092 58.6428C87.99 58.6477 88.07 58.6509 88.1508 58.6509C89.0687 58.6509 89.9454 58.3196 90.6395 57.7071C91.3958 57.0397 91.8466 56.117 91.9088 55.111C92.0373 53.0345 90.452 51.2391 88.3755 51.1114V51.1098ZM169.902 51.1098C171.543 52.9674 172.362 55.3518 172.209 57.8251C171.905 62.7361 167.81 66.5289 162.955 66.5305C162.763 66.5305 162.571 66.5232 162.377 66.5119C159.904 66.3584 157.638 65.2514 155.998 63.3947C154.357 61.5371 153.537 59.1535 153.691 56.6794C153.844 54.2069 154.95 51.9404 156.807 50.3002C158.666 48.6592 161.057 47.8318 163.523 47.9934C165.995 48.1461 168.262 49.2522 169.902 51.1098ZM162.943 51.5235C161.545 51.5235 160.213 52.0269 159.158 52.9593C158.011 53.9726 157.329 55.3712 157.234 56.8991C157.14 58.4263 157.645 59.8984 158.659 61.0458C159.672 62.1923 161.07 62.8767 162.598 62.9713C165.708 63.1466 168.475 60.7598 168.67 57.6061C168.765 56.079 168.258 54.6068 167.245 53.4595C166.232 52.3129 164.833 51.6302 163.305 51.5356C163.184 51.5284 163.064 51.5243 162.944 51.5243L162.943 51.5235ZM160.945 58.8117C161.945 58.8868 162.766 58.1281 162.825 57.1504C162.833 57.026 162.933 56.9266 163.063 56.9387C163.17 56.946 163.281 57.0712 163.275 57.1779C163.215 58.1564 163.958 58.9983 164.936 59.0581C164.973 59.0605 165.011 59.0613 165.047 59.0613C165.977 59.0613 166.758 58.3374 166.816 57.3969C166.878 56.3909 166.546 55.4205 165.878 54.665C165.211 53.9095 164.289 53.4595 163.283 53.3965C161.179 53.2591 159.412 54.8509 159.284 56.9298C159.224 57.9083 159.967 58.7503 160.945 58.8101V58.8117ZM127.704 41.5189H127.723L133.535 41.4591C134.514 41.4486 135.301 40.6462 135.29 39.6661C135.28 38.6925 134.488 37.9103 133.516 37.9103H133.497L127.685 37.9701C126.706 37.9806 125.919 38.783 125.93 39.7631C125.94 40.7367 126.732 41.5189 127.704 41.5189ZM86.0977 28.4592C97.581 27.0403 115.79 19.378 115.993 19.2932C122.306 16.1574 132.592 14.7337 140.347 15.9505L166.362 20.0349C170.901 20.4252 174.845 23.4318 176.423 27.7101L180.364 38.4016L181.417 41.2619C183.601 47.7227 177.157 56.5452 175.89 57.657C174.962 58.4699 174.051 58.1249 173.796 57.9988C173.152 57.6837 172.75 56.9816 172.794 56.2665C172.934 54.0154 172.155 51.8176 170.6 50.0772C168.851 48.1194 166.342 46.9203 163.713 46.7862C153.732 46.261 152.718 56.2455 152.68 56.6697C152.596 57.5876 151.824 58.2824 150.914 58.2824C150.877 58.2824 150.839 58.2816 150.801 58.2792L99.6705 55.0311C99.1485 54.9979 98.667 54.7361 98.3559 54.3152C98.1111 53.9847 97.9907 53.5831 98.0109 53.1783C97.8961 52.5925 96.2203 45.1953 89.4768 44.6587C81.7184 44.0479 78.6512 51.046 78.4225 51.6237C78.3264 52.1966 77.9539 52.6967 77.4109 52.9448C76.7386 53.2486 75.9484 53.1112 75.4256 52.5925C74.8253 51.9986 69.5757 46.6537 69.8779 41.7403L69.9514 40.5549C70.0355 39.1967 70.3409 37.9047 70.816 36.6999C70.8427 36.6175 70.8774 36.5392 70.9162 36.4624C72.8344 31.877 77.3511 28.6846 82.5789 28.6846H82.8156C83.8119 28.6846 84.9043 28.6046 86.0646 28.4624C86.0759 28.4608 86.0872 28.46 86.0977 28.4592ZM117.473 22.5155C116.571 22.9001 99.6931 30.0016 87.7057 31.8132L87.4584 32.7052C86.6068 36.0447 83.6923 38.4372 80.2155 38.6278L73.7935 38.9559C73.6351 39.5409 73.5309 40.1485 73.4921 40.7755L73.4186 41.9608C73.3006 43.8645 74.8447 46.3507 76.2336 48.1356C76.8639 47.1288 77.6808 46.0679 78.6011 45.1589C80.7035 43.0799 84.3532 40.6802 89.7588 41.1221C93.3948 41.4106 96.5064 43.2003 98.7583 46.2966C99.9581 47.9457 100.866 49.994 101.289 51.5785L149.414 54.6343C150.341 50.3446 153.461 44.46 160.59 43.3886L162.37 38.0582C162.37 38.0315 162.365 38.0057 162.366 37.979C162.388 37.6275 162.514 37.3076 162.708 37.0433L163.57 34.4634C163.756 33.918 163.906 33.2668 163.929 32.5848C162.558 34.4949 160.365 35.6641 158.005 35.711L102.876 36.8187H102.823C101.627 36.8187 100.623 36.0099 100.369 34.8367C100.113 33.6457 100.714 32.479 101.834 31.999L121.123 23.7081C126.335 21.3714 132.118 20.4034 137.838 20.9189L138.67 21.0466C138.679 21.0482 138.687 21.0466 138.696 21.0482C138.703 21.049 138.708 21.0522 138.715 21.053L160.085 24.3295C160.131 24.3368 160.175 24.3448 160.22 24.3545C162.769 24.9492 164.784 26.1774 166.048 27.9065C167.595 30.0178 167.908 32.7505 166.931 35.6003L166.642 36.4673L176.086 37.0514L173.095 28.9383C171.985 25.9309 169.204 23.8228 166.009 23.5667C165.965 23.5635 165.92 23.5578 165.876 23.5506L139.797 19.4564C132.799 18.3592 123.203 19.6746 117.474 22.5171L117.473 22.5155ZM175.721 51.9154C177.327 49.1876 179.022 45.2534 178.072 42.4424L177.426 40.6891L165.477 39.9497L164.362 43.2908C167.758 43.5857 170.975 45.1718 173.245 47.7138C174.364 48.967 175.198 50.3931 175.72 51.9154H175.721ZM134.972 32.6236L136.341 24.3909C135.837 24.365 135.335 24.3238 134.83 24.3238C130.651 24.3238 126.431 25.2167 122.549 26.9563L108.107 33.1633L134.972 32.6236ZM138.581 32.5517L157.935 32.163C159.217 32.138 160.409 31.4875 161.125 30.4234L162.109 28.9585C161.406 28.4591 160.518 28.0745 159.476 27.8257L139.867 24.8167L138.581 32.5517ZM75.7626 35.3029L80.028 35.0848C81.7951 34.9878 83.2923 33.8469 83.8886 32.2075C83.5202 32.2236 83.159 32.2333 82.8083 32.2333H82.5789C79.8777 32.2333 77.436 33.4154 75.7626 35.3029Z"/>
</mask>
<path d="M161.276 66.9547L172.71 70.3289L180.836 72.7262C181.59 72.9476 182.107 73.6409 182.107 74.4279V83.9437C182.107 84.5109 181.836 85.0434 181.379 85.3771C181.072 85.6009 180.704 85.7181 180.333 85.7181C180.151 85.7181 179.968 85.6906 179.79 85.6324L167.079 81.5504L163.904 89.4139C163.634 90.0853 162.982 90.5241 162.259 90.5241H162.253L152.529 90.495L148.718 95.4537C148.382 95.89 147.862 96.1469 147.311 96.1469H136.548C136.59 96.6067 136.619 97.0697 136.619 97.5399C136.619 106.02 129.718 112.92 121.238 112.92C113.243 112.92 106.658 106.784 105.931 98.9757C105.886 98.5023 105.858 98.0247 105.858 97.5399C105.858 97.0551 105.887 96.6067 105.928 96.1469H63.6531C63.6943 96.6067 63.7234 97.0697 63.7234 97.5399C63.7234 106.02 56.8231 112.92 48.3431 112.92C39.8632 112.92 32.9628 106.02 32.9628 97.5399C32.9628 97.0333 32.9911 96.534 33.0388 96.0395H30.4241C30.3562 96.0476 30.29 96.0613 30.2197 96.0613L17.408 96.1469H15.0099C12.9034 96.1469 11.0895 94.644 10.6992 92.5748L10.2096 89.9851C10.0181 88.9735 10.2815 87.9417 10.9311 87.1579C11.5524 86.4081 12.4582 85.9791 13.4157 85.9791H15.6215V63.3284C15.6215 62.3855 15.8801 60.7937 16.335 58.6687C17.0582 55.2888 18.2807 50.5507 19.773 44.8567C20.5633 41.8421 21.309 38.9939 21.7389 37.1532C21.9239 36.3598 22.1647 35.6188 22.4322 34.9038C22.4524 34.8472 22.4742 34.7931 22.4992 34.7397C23.0996 33.186 23.8761 31.8075 24.857 30.6577C26.8164 28.363 29.3996 26.852 32.1678 26.3018C32.3916 24.5872 32.7915 21.4651 33.08 19.1979C33.1931 18.3123 33.9478 17.6481 34.8398 17.6481H39.7622C40.6364 17.6481 41.3806 18.2848 41.5155 19.1486L42.5958 26.0586H65.8517C66.8309 26.0586 67.626 26.8529 67.626 27.833V63.9611H85.0942C85.3495 63.9611 85.5919 63.9643 85.8286 63.9691C81.5559 62.9212 78.4993 58.9361 78.7797 54.3943C78.9332 51.9219 80.0401 49.6554 81.8969 48.0152C83.7553 46.3749 86.147 45.5524 88.6122 45.7083C91.0847 45.861 93.3511 46.9672 94.9914 48.8248C96.6324 50.6824 97.4518 53.0668 97.299 55.5401C97.0098 60.199 93.3083 63.8471 88.7827 64.2091C90.6807 64.5186 91.7085 65.0898 92.7322 65.7686C93.7406 66.4376 94.5963 67.0145 98.9207 66.8852H160.77C160.94 66.8844 161.109 66.9086 161.272 66.9571L161.276 66.9547ZM93.7616 55.3179C93.8561 53.7908 93.3495 52.3186 92.3363 51.1712C91.3231 50.0239 89.9244 49.3419 88.3965 49.2474C86.8669 49.1617 85.3956 49.6595 84.2498 50.6719C83.1033 51.6851 82.4189 53.0838 82.3244 54.6117C82.1304 57.7637 84.5359 60.4883 87.6895 60.6838C90.8003 60.8777 93.5661 58.4731 93.7616 55.3187V55.3179ZM161.064 86.9721L163.692 80.4628L160.69 79.4989L160.491 79.4351L157.434 79.4221L67.6292 79.0327V92.599H106.689C108.753 86.5382 114.489 82.1605 121.239 82.1605C127.989 82.1605 133.725 86.539 135.79 92.599H146.437L150.25 87.6379C150.587 87.2016 151.106 86.9446 151.657 86.9446H151.663L161.063 86.9721H161.064ZM121.24 85.7068C114.715 85.7068 109.409 91.0137 109.409 97.5383C109.409 104.063 114.715 109.37 121.24 109.37C127.765 109.37 133.072 104.063 133.072 97.5383C133.072 91.0137 127.765 85.7068 121.24 85.7068ZM48.3455 109.371C54.8701 109.371 60.1771 104.064 60.1771 97.5391C60.1771 91.0145 54.8701 85.7076 48.3455 85.7076C41.8209 85.7076 36.514 91.0145 36.514 97.5391C36.514 104.064 41.8209 109.371 48.3455 109.371ZM62.896 92.5974H64.0813V79.027H45.1968C43.2099 79.027 41.3305 79.5514 39.6377 80.4628C35.5751 82.6509 32.6299 87.1466 32.0845 92.4899H33.8339C35.3957 88.016 38.9598 84.4827 43.4555 82.9693C44.9939 82.4513 46.635 82.1588 48.3455 82.1588C55.0713 82.1588 60.7895 86.5067 62.8726 92.5335C62.8798 92.5554 62.8887 92.5764 62.896 92.5974ZM15.0131 92.5974H15.6256V89.5254H13.6888L14.189 91.9154C14.2641 92.3105 14.6107 92.5982 15.0139 92.5982L15.0131 92.5974ZM36.4065 21.1936C36.1819 22.9567 35.9532 24.7343 35.7811 26.0562H39.0075L38.2472 21.1936H36.4057H36.4065ZM27.5605 32.9581C27.361 33.1924 27.18 33.4582 26.9982 33.7241H43.4289C46.8903 33.7241 50.2136 35.1437 52.7855 37.7213C55.7597 40.7036 57.4598 44.9803 57.4485 49.455L57.4105 75.4791H64.0813V29.6041H34.4762C31.864 29.6041 29.4068 30.7951 27.5597 32.9581H27.5605ZM23.2078 45.7544C21.5054 52.2523 19.1735 61.1516 19.1735 63.3268V92.5861L28.5091 92.5239C29.3034 82.9765 36.4841 75.4799 45.1968 75.4799H53.8618L53.8997 49.4486C53.9086 45.9071 52.5867 42.5474 50.2734 40.2285C48.3722 38.3224 45.9409 37.2728 43.4289 37.2728H25.3951C25.3305 37.5023 25.2545 37.7213 25.1988 37.9588C24.7576 39.8463 24.0053 42.7163 23.2087 45.7552L23.2078 45.7544ZM178.559 75.753L160.516 70.4299H98.9764C93.9854 70.5745 92.4252 69.8174 90.7728 68.7226C89.8307 68.0964 88.9411 67.5066 85.0974 67.5066H66.7897V75.4799H66.797L160.78 75.8879C160.961 75.8887 161.141 75.9178 161.315 75.9736L178.558 81.5108V75.7546L178.559 75.753ZM22.9113 65.8736C22.1583 65.1052 21.9183 63.999 22.2843 62.9858C23.3654 59.9954 25.421 54.2109 26.7897 50.3527C27.8579 47.3429 30.7021 45.3205 33.8662 45.3205H48.6526C49.6319 45.3205 50.4269 46.1148 50.4269 47.0949V53.3229C50.4269 56.2309 48.5952 58.806 45.8682 59.7296L25.7563 66.5547C25.463 66.6541 25.1624 66.7026 24.8659 66.7026C24.1427 66.7026 23.4405 66.4141 22.9113 65.8744V65.8736ZM30.1348 51.5397C28.9697 54.8226 27.3085 59.4969 26.1708 62.6642L44.7281 56.3675C46.0145 55.932 46.879 54.7078 46.879 53.3221V48.8684H33.867C32.2017 48.8684 30.7012 49.9415 30.1348 51.5397ZM48.6526 63.1523H43.71C42.7307 63.1523 41.9357 63.9465 41.9357 64.9266C41.9357 65.9067 42.7299 66.701 43.71 66.701H48.6526C49.6319 66.701 50.4269 65.9067 50.4269 64.9266C50.4269 63.9465 49.6327 63.1523 48.6526 63.1523ZM130.28 97.4349C130.28 102.419 126.225 106.474 121.24 106.474C116.256 106.474 112.201 102.419 112.201 97.4349C112.201 92.4511 116.256 88.3958 121.24 88.3958C126.224 88.3958 130.28 92.4511 130.28 97.4349ZM121.24 91.9437C118.212 91.9437 115.749 94.4073 115.749 97.4349C115.749 100.462 118.212 102.926 121.24 102.926C124.268 102.926 126.732 100.462 126.732 97.4349C126.732 94.4073 124.268 91.9437 121.24 91.9437ZM57.3854 97.4349C57.3854 102.419 53.3301 106.474 48.3455 106.474C43.361 106.474 39.3064 102.419 39.3064 97.4349C39.3064 92.4511 43.3618 88.3958 48.3455 88.3958C53.3293 88.3958 57.3854 92.4511 57.3854 97.4349ZM48.3455 102.926C51.3739 102.926 53.8375 100.462 53.8375 97.4349C53.8375 94.4073 51.3739 91.9437 48.3455 91.9437C45.3172 91.9437 42.8544 94.4073 42.8544 97.4349C42.8544 100.462 45.318 102.926 48.3455 102.926ZM88.3755 51.1098C87.3784 51.0686 86.555 51.795 86.4952 52.7711C86.4355 53.7496 87.178 54.5915 88.1565 54.6513C88.2809 54.6594 88.3763 54.7668 88.3682 54.8905C88.365 54.9527 88.3391 55.0052 88.2922 55.0456C88.2462 55.086 88.188 55.1054 88.1314 55.1013C87.1707 55.0504 86.311 55.7825 86.2496 56.761C86.1882 57.7378 86.9308 58.5814 87.9092 58.6428C87.99 58.6477 88.07 58.6509 88.1508 58.6509C89.0687 58.6509 89.9454 58.3196 90.6395 57.7071C91.3958 57.0397 91.8466 56.117 91.9088 55.111C92.0373 53.0345 90.452 51.2391 88.3755 51.1114V51.1098ZM169.902 51.1098C171.543 52.9674 172.362 55.3518 172.209 57.8251C171.905 62.7361 167.81 66.5289 162.955 66.5305C162.763 66.5305 162.571 66.5232 162.377 66.5119C159.904 66.3584 157.638 65.2514 155.998 63.3947C154.357 61.5371 153.537 59.1535 153.691 56.6794C153.844 54.2069 154.95 51.9404 156.807 50.3002C158.666 48.6592 161.057 47.8318 163.523 47.9934C165.995 48.1461 168.262 49.2522 169.902 51.1098ZM162.943 51.5235C161.545 51.5235 160.213 52.0269 159.158 52.9593C158.011 53.9726 157.329 55.3712 157.234 56.8991C157.14 58.4263 157.645 59.8984 158.659 61.0458C159.672 62.1923 161.07 62.8767 162.598 62.9713C165.708 63.1466 168.475 60.7598 168.67 57.6061C168.765 56.079 168.258 54.6068 167.245 53.4595C166.232 52.3129 164.833 51.6302 163.305 51.5356C163.184 51.5284 163.064 51.5243 162.944 51.5243L162.943 51.5235ZM160.945 58.8117C161.945 58.8868 162.766 58.1281 162.825 57.1504C162.833 57.026 162.933 56.9266 163.063 56.9387C163.17 56.946 163.281 57.0712 163.275 57.1779C163.215 58.1564 163.958 58.9983 164.936 59.0581C164.973 59.0605 165.011 59.0613 165.047 59.0613C165.977 59.0613 166.758 58.3374 166.816 57.3969C166.878 56.3909 166.546 55.4205 165.878 54.665C165.211 53.9095 164.289 53.4595 163.283 53.3965C161.179 53.2591 159.412 54.8509 159.284 56.9298C159.224 57.9083 159.967 58.7503 160.945 58.8101V58.8117ZM127.704 41.5189H127.723L133.535 41.4591C134.514 41.4486 135.301 40.6462 135.29 39.6661C135.28 38.6925 134.488 37.9103 133.516 37.9103H133.497L127.685 37.9701C126.706 37.9806 125.919 38.783 125.93 39.7631C125.94 40.7367 126.732 41.5189 127.704 41.5189ZM86.0977 28.4592C97.581 27.0403 115.79 19.378 115.993 19.2932C122.306 16.1574 132.592 14.7337 140.347 15.9505L166.362 20.0349C170.901 20.4252 174.845 23.4318 176.423 27.7101L180.364 38.4016L181.417 41.2619C183.601 47.7227 177.157 56.5452 175.89 57.657C174.962 58.4699 174.051 58.1249 173.796 57.9988C173.152 57.6837 172.75 56.9816 172.794 56.2665C172.934 54.0154 172.155 51.8176 170.6 50.0772C168.851 48.1194 166.342 46.9203 163.713 46.7862C153.732 46.261 152.718 56.2455 152.68 56.6697C152.596 57.5876 151.824 58.2824 150.914 58.2824C150.877 58.2824 150.839 58.2816 150.801 58.2792L99.6705 55.0311C99.1485 54.9979 98.667 54.7361 98.3559 54.3152C98.1111 53.9847 97.9907 53.5831 98.0109 53.1783C97.8961 52.5925 96.2203 45.1953 89.4768 44.6587C81.7184 44.0479 78.6512 51.046 78.4225 51.6237C78.3264 52.1966 77.9539 52.6967 77.4109 52.9448C76.7386 53.2486 75.9484 53.1112 75.4256 52.5925C74.8253 51.9986 69.5757 46.6537 69.8779 41.7403L69.9514 40.5549C70.0355 39.1967 70.3409 37.9047 70.816 36.6999C70.8427 36.6175 70.8774 36.5392 70.9162 36.4624C72.8344 31.877 77.3511 28.6846 82.5789 28.6846H82.8156C83.8119 28.6846 84.9043 28.6046 86.0646 28.4624C86.0759 28.4608 86.0872 28.46 86.0977 28.4592ZM117.473 22.5155C116.571 22.9001 99.6931 30.0016 87.7057 31.8132L87.4584 32.7052C86.6068 36.0447 83.6923 38.4372 80.2155 38.6278L73.7935 38.9559C73.6351 39.5409 73.5309 40.1485 73.4921 40.7755L73.4186 41.9608C73.3006 43.8645 74.8447 46.3507 76.2336 48.1356C76.8639 47.1288 77.6808 46.0679 78.6011 45.1589C80.7035 43.0799 84.3532 40.6802 89.7588 41.1221C93.3948 41.4106 96.5064 43.2003 98.7583 46.2966C99.9581 47.9457 100.866 49.994 101.289 51.5785L149.414 54.6343C150.341 50.3446 153.461 44.46 160.59 43.3886L162.37 38.0582C162.37 38.0315 162.365 38.0057 162.366 37.979C162.388 37.6275 162.514 37.3076 162.708 37.0433L163.57 34.4634C163.756 33.918 163.906 33.2668 163.929 32.5848C162.558 34.4949 160.365 35.6641 158.005 35.711L102.876 36.8187H102.823C101.627 36.8187 100.623 36.0099 100.369 34.8367C100.113 33.6457 100.714 32.479 101.834 31.999L121.123 23.7081C126.335 21.3714 132.118 20.4034 137.838 20.9189L138.67 21.0466C138.679 21.0482 138.687 21.0466 138.696 21.0482C138.703 21.049 138.708 21.0522 138.715 21.053L160.085 24.3295C160.131 24.3368 160.175 24.3448 160.22 24.3545C162.769 24.9492 164.784 26.1774 166.048 27.9065C167.595 30.0178 167.908 32.7505 166.931 35.6003L166.642 36.4673L176.086 37.0514L173.095 28.9383C171.985 25.9309 169.204 23.8228 166.009 23.5667C165.965 23.5635 165.92 23.5578 165.876 23.5506L139.797 19.4564C132.799 18.3592 123.203 19.6746 117.474 22.5171L117.473 22.5155ZM175.721 51.9154C177.327 49.1876 179.022 45.2534 178.072 42.4424L177.426 40.6891L165.477 39.9497L164.362 43.2908C167.758 43.5857 170.975 45.1718 173.245 47.7138C174.364 48.967 175.198 50.3931 175.72 51.9154H175.721ZM134.972 32.6236L136.341 24.3909C135.837 24.365 135.335 24.3238 134.83 24.3238C130.651 24.3238 126.431 25.2167 122.549 26.9563L108.107 33.1633L134.972 32.6236ZM138.581 32.5517L157.935 32.163C159.217 32.138 160.409 31.4875 161.125 30.4234L162.109 28.9585C161.406 28.4591 160.518 28.0745 159.476 27.8257L139.867 24.8167L138.581 32.5517ZM75.7626 35.3029L80.028 35.0848C81.7951 34.9878 83.2923 33.8469 83.8886 32.2075C83.5202 32.2236 83.159 32.2333 82.8083 32.2333H82.5789C79.8777 32.2333 77.436 33.4154 75.7626 35.3029Z" fill="#B89A0F" stroke="#262523" stroke-width="1.01" stroke-linejoin="round" mask="url(#path-1-inside-1_2049_1191)"/>
</svg>
