<svg width="128" height="128" viewBox="0 0 128 128" fill="none" xmlns="http://www.w3.org/2000/svg">
<mask id="path-1-inside-1_2049_1147" fill="white">
<path fill-rule="evenodd" clip-rule="evenodd" d="M19.5304 75.15C17.8523 74.9976 16.4961 73.6643 16.3059 71.9789C16.0233 69.4744 16.647 67.4774 18.1601 66.0443C19.3861 64.8842 21.1877 64.4143 22.9782 64.7872L31.8864 66.6473C34.8126 67.2584 37.7048 70.4414 39.6159 73.0043C40.1819 73.7627 40.2463 74.7475 39.7831 75.5747C39.3547 76.3397 38.5764 76.7933 37.7151 76.7933C37.6404 76.7933 37.5657 76.7903 37.4902 76.7829L19.5304 75.15ZM21.7648 67.2577C21.0589 67.2577 20.4079 67.4922 19.9462 67.9295C19.0443 68.7833 18.6972 70.013 18.8867 71.6866C18.9392 72.1535 19.3084 72.5219 19.7656 72.5634L37.2276 74.1512C35.0457 71.3152 32.9215 69.5158 31.3559 69.1888C31.3559 69.1888 21.9882 67.2577 21.7648 67.2577Z"/>
<path fill-rule="evenodd" clip-rule="evenodd" d="M58.8787 82.2692L51.9794 81.6381V81.6395C48.7476 81.3436 46.0181 79.1557 45.026 76.066L43.4308 71.0984C43.143 70.2039 43.3168 69.2288 43.8954 68.4889C44.474 67.749 45.3781 67.3458 46.3156 67.4079L59.9775 68.3276C61.4262 68.4253 62.5604 69.6379 62.5604 71.0896V78.9086C62.5604 79.8549 62.1594 80.7635 61.4609 81.4013C60.8379 81.9703 60.0219 82.2832 59.1843 82.2832C59.0822 82.2832 58.9809 82.2788 58.8787 82.2692ZM46.1225 69.9982C46.0492 69.9982 45.9878 70.0278 45.9412 70.0878V70.0863C45.8901 70.1514 45.8776 70.2239 45.9027 70.3023L47.4986 75.2699C48.1719 77.366 50.0239 78.8502 52.2161 79.0507L59.1155 79.6818C59.4122 79.707 59.6157 79.5686 59.7104 79.482C59.8051 79.3955 59.9634 79.2061 59.9634 78.9079V71.0888C59.9634 70.9993 59.8931 70.9238 59.8029 70.9179L46.141 69.9982H46.1225Z"/>
<path fill-rule="evenodd" clip-rule="evenodd" d="M62.6521 89.025C62.5492 87.6481 61.4327 86.5538 60.0551 86.4791L28.6597 84.7677C26.6517 84.6553 24.8368 85.9242 24.2463 87.8471L23.0019 91.9009C22.7318 92.7821 22.8827 93.7173 23.4177 94.4676C23.9526 95.2178 24.7864 95.6669 25.7076 95.6987L58.0293 96.8234C58.0833 96.8256 58.1373 96.8263 58.1913 96.8263C59.461 96.8263 60.6833 96.3077 61.5659 95.3895C62.4856 94.4321 62.9569 93.124 62.8578 91.7996L62.6513 89.0243L62.6521 89.025ZM59.6933 93.5901C59.2775 94.0222 58.7189 94.2523 58.1203 94.2286C58.1203 94.2286 25.5774 93.0241 25.533 92.9612C25.4886 92.8983 26.7294 88.6092 26.7294 88.6092C26.9587 87.8612 27.6454 87.3581 28.42 87.3581C28.4526 87.3581 28.4851 87.3588 28.5184 87.3603L59.9138 89.0716C59.9922 89.0761 60.0566 89.139 60.0625 89.2174L60.2689 91.9927C60.3133 92.5905 60.1091 93.158 59.6933 93.5901Z"/>
<path fill-rule="evenodd" clip-rule="evenodd" d="M29.8502 60.6254H98.1509C98.93 60.6254 99.6373 60.2236 100.092 59.5237C100.638 58.6832 100.719 57.5808 100.303 56.647C100.302 56.6434 100.3 56.6405 100.299 56.6376L100.299 56.6374L92.1208 38.6465C90.8764 35.8505 88.4917 34.1139 85.897 34.1139H42.1034C39.5086 34.1139 37.124 35.8505 35.884 38.6368L27.6972 56.6463C27.2814 57.58 27.3628 58.6824 27.9088 59.5229C28.3638 60.2236 29.0711 60.6246 29.8502 60.6246V60.6254ZM38.2531 39.7023C39.0743 37.857 40.5497 36.7109 42.1042 36.7109H85.8977C87.4522 36.7109 88.9283 37.857 89.7532 39.7119L97.9333 57.7051C97.9837 57.8212 30.0175 57.822 30.0663 57.7117L38.2531 39.7023Z"/>
<path fill-rule="evenodd" clip-rule="evenodd" d="M88.218 75.5739C87.7555 74.7474 87.8192 73.7619 88.3852 73.0035L88.3859 73.0043C90.2963 70.4421 93.1885 67.2584 96.1154 66.6472L105.024 64.7872C106.814 64.4143 108.616 64.8834 109.842 66.045C111.355 67.4774 111.979 69.4736 111.696 71.9788C111.505 73.6643 110.149 74.9975 108.471 75.1499L90.5116 76.7829C90.4354 76.7895 90.3607 76.7932 90.2859 76.7932C89.4247 76.7932 88.6464 76.3397 88.218 75.5739ZM108.056 67.9294C107.447 67.3531 106.513 67.1289 105.554 67.3287H105.555L96.6467 69.1887C95.0818 69.5158 92.9569 71.3151 90.775 74.1511L108.237 72.5633C108.693 72.5219 109.063 72.1534 109.116 71.6866C109.305 70.0122 108.958 68.7833 108.056 67.9294Z"/>
<path fill-rule="evenodd" clip-rule="evenodd" d="M68.8175 82.2832C68.9196 82.2832 69.021 82.2788 69.1231 82.2692L76.0225 81.6381C79.2543 81.3428 81.9837 79.155 82.9759 76.0645L84.5711 71.0977C84.8581 70.2032 84.6843 69.228 84.1064 68.4881C83.5278 67.7483 82.6229 67.3443 81.6863 67.4072L68.0244 68.3269C66.5757 68.4245 65.4414 69.6379 65.4414 71.0888V78.9079C65.4414 79.8542 65.8425 80.7628 66.5409 81.3998C67.1639 81.9688 67.98 82.2817 68.8175 82.2817V82.2832ZM68.0384 71.0896C68.0384 70.9993 68.1087 70.9246 68.1982 70.9187L81.8609 69.999H81.8794C81.9526 69.999 82.014 70.0293 82.0606 70.0885C82.1117 70.1536 82.1243 70.2261 82.0999 70.3046L80.5039 75.2721C79.8306 77.3682 77.9795 78.8524 75.7865 79.0529L68.8871 79.684C68.5896 79.7114 68.3869 79.5701 68.2922 79.4843C68.1975 79.3977 68.0392 79.2083 68.0392 78.9101V71.091L68.0384 71.0896Z"/>
<path fill-rule="evenodd" clip-rule="evenodd" d="M99.3421 84.7684C101.35 84.6515 103.165 85.9248 103.755 87.8478V87.8493L105 91.9031C105.27 92.7835 105.119 93.7187 104.584 94.469C104.05 95.2192 103.215 95.6683 102.294 95.7001L69.9725 96.8247C69.9185 96.827 69.8645 96.8277 69.8105 96.8277C68.5401 96.8277 67.3185 96.3091 66.4359 95.3909C65.5162 94.4334 65.0449 93.1246 65.1433 91.801L65.3497 89.0257C65.4525 87.6488 66.569 86.5545 67.9474 86.4797L99.3421 84.7684ZM68.3085 93.59C68.7236 94.0228 69.2822 94.2426 69.8815 94.2285C69.8815 94.2285 102.424 93.024 102.469 92.9611C102.513 92.8982 101.272 88.6091 101.272 88.6091C101.043 87.8611 100.356 87.358 99.5818 87.358C99.5492 87.358 99.5167 87.3587 99.4834 87.3602L68.088 89.0715C68.0088 89.076 67.9452 89.1389 67.9393 89.2173L67.7329 91.9926C67.6885 92.5904 67.8927 93.1579 68.3085 93.59Z"/>
<path fill-rule="evenodd" clip-rule="evenodd" d="M19.045 56.1439L12.6325 55.5483L12.6317 55.5476C11.8149 55.4714 11.0661 55.0511 10.5756 54.3941C10.085 53.7363 9.89563 52.8988 10.0554 52.0946L10.2619 51.0587C10.7517 48.5957 12.9306 46.8081 15.4418 46.8081H19.7982C21.1574 46.8081 22.2635 47.9127 22.2657 49.2719C24.9293 43.8826 28.2802 37.8134 31.7872 33.2564C33.6029 30.8829 36.3516 29.5193 39.3281 29.5193H49.5851V24.8233C49.5851 22.1634 51.7492 20 54.4084 20H73.5927C76.2526 20 78.416 22.1634 78.416 24.8233V29.5193H88.673C91.6488 29.5193 94.3982 30.8829 96.2161 33.2601C99.7216 37.8149 103.073 43.8841 105.735 49.2719C105.738 47.9127 106.843 46.8081 108.202 46.8081H112.559C115.07 46.8081 117.249 48.5957 117.738 51.0595L117.944 52.0946C118.105 52.8988 117.915 53.7371 117.425 54.3941C116.934 55.0511 116.185 55.4714 115.369 55.5476L108.956 56.1432C109.847 58.1453 110.533 59.7745 110.954 60.7993C111.161 61.309 111.495 61.7271 111.95 62.0489L115.117 64.3174C116.515 65.3081 117.277 66.9995 117.098 68.7271L116.16 77.6944L117.015 103.694C117.056 104.901 116.615 106.047 115.774 106.918C114.933 107.788 113.804 108.266 112.596 108.266H103.9C101.847 108.266 100.177 106.593 100.177 104.535V101.924H27.8215V104.535C27.8215 106.593 26.1523 108.266 24.0999 108.266H15.404C14.1958 108.266 13.0675 107.788 12.2262 106.918C11.385 106.047 10.9448 104.902 10.9855 103.693L11.8393 77.6952L10.9019 68.7293C10.7236 67.0002 11.4856 65.3088 12.8892 64.3137L16.0448 62.0533C16.5057 61.7278 16.8394 61.3098 17.0436 60.8067C17.4668 59.7797 18.1534 58.1475 19.045 56.1439ZM24.1013 105.669C24.7214 105.669 25.226 105.161 25.226 104.535V101.923H18.5071C16.1432 101.923 14.181 100.157 13.9443 97.814L13.8177 96.605L13.5817 103.78C13.5654 104.281 13.7474 104.753 14.0952 105.113C14.4422 105.472 14.9076 105.669 15.4055 105.669H24.1013ZM112.596 105.669C113.095 105.669 113.56 105.472 113.907 105.113H113.907C114.254 104.753 114.436 104.281 114.419 103.781L114.184 96.6058L114.058 97.8192C113.821 100.158 111.859 101.924 109.495 101.924H102.775V104.535C102.775 105.16 103.28 105.669 103.9 105.669H112.596ZM112.559 49.4066H108.332L108.332 49.4073V53.595L115.129 52.9632C115.24 52.9528 115.306 52.8921 115.343 52.8426C115.38 52.793 115.42 52.7116 115.397 52.6021L115.192 51.567C114.943 50.3151 113.836 49.4066 112.559 49.4066ZM54.4084 22.5985C53.1809 22.5985 52.1828 23.5966 52.1828 24.824V29.5201H75.819V24.824C75.819 23.5966 74.8202 22.5985 73.5927 22.5985H54.4084ZM39.3288 32.117C37.1684 32.117 35.1707 33.1092 33.8485 34.8383H33.8493C27.2555 43.4054 21.1596 57.6318 19.4482 61.7885C19.0635 62.7392 18.4065 63.5642 17.5519 64.1694L14.3963 66.429C13.7511 66.8863 13.4041 67.6639 13.4863 68.4607L16.5272 97.5491C16.6293 98.5642 17.4801 99.3271 18.5064 99.3271H109.495C110.521 99.3271 111.372 98.565 111.474 97.5536L114.516 68.4592C114.598 67.6639 114.251 66.887 113.611 66.4327L110.444 64.1657C109.595 63.5649 108.938 62.7392 108.551 61.7826C106.842 57.6326 100.746 43.4054 94.1555 34.842C92.8311 33.1092 90.8334 32.117 88.673 32.117H39.3288ZM15.4425 49.4066C14.1662 49.4066 13.0586 50.3151 12.81 51.567V51.5663L12.6036 52.6021C12.5821 52.7109 12.6214 52.793 12.6583 52.8418C12.6953 52.8914 12.7619 52.9521 12.8729 52.9624L19.6702 53.5943V49.4066H15.4425Z"/>
</mask>
<path fill-rule="evenodd" clip-rule="evenodd" d="M19.5304 75.15C17.8523 74.9976 16.4961 73.6643 16.3059 71.9789C16.0233 69.4744 16.647 67.4774 18.1601 66.0443C19.3861 64.8842 21.1877 64.4143 22.9782 64.7872L31.8864 66.6473C34.8126 67.2584 37.7048 70.4414 39.6159 73.0043C40.1819 73.7627 40.2463 74.7475 39.7831 75.5747C39.3547 76.3397 38.5764 76.7933 37.7151 76.7933C37.6404 76.7933 37.5657 76.7903 37.4902 76.7829L19.5304 75.15ZM21.7648 67.2577C21.0589 67.2577 20.4079 67.4922 19.9462 67.9295C19.0443 68.7833 18.6972 70.013 18.8867 71.6866C18.9392 72.1535 19.3084 72.5219 19.7656 72.5634L37.2276 74.1512C35.0457 71.3152 32.9215 69.5158 31.3559 69.1888C31.3559 69.1888 21.9882 67.2577 21.7648 67.2577Z" fill="#B89A0F"/>
<path fill-rule="evenodd" clip-rule="evenodd" d="M58.8787 82.2692L51.9794 81.6381V81.6395C48.7476 81.3436 46.0181 79.1557 45.026 76.066L43.4308 71.0984C43.143 70.2039 43.3168 69.2288 43.8954 68.4889C44.474 67.749 45.3781 67.3458 46.3156 67.4079L59.9775 68.3276C61.4262 68.4253 62.5604 69.6379 62.5604 71.0896V78.9086C62.5604 79.8549 62.1594 80.7635 61.4609 81.4013C60.8379 81.9703 60.0219 82.2832 59.1843 82.2832C59.0822 82.2832 58.9809 82.2788 58.8787 82.2692ZM46.1225 69.9982C46.0492 69.9982 45.9878 70.0278 45.9412 70.0878V70.0863C45.8901 70.1514 45.8776 70.2239 45.9027 70.3023L47.4986 75.2699C48.1719 77.366 50.0239 78.8502 52.2161 79.0507L59.1155 79.6818C59.4122 79.707 59.6157 79.5686 59.7104 79.482C59.8051 79.3955 59.9634 79.2061 59.9634 78.9079V71.0888C59.9634 70.9993 59.8931 70.9238 59.8029 70.9179L46.141 69.9982H46.1225Z" fill="#B89A0F"/>
<path fill-rule="evenodd" clip-rule="evenodd" d="M62.6521 89.025C62.5492 87.6481 61.4327 86.5538 60.0551 86.4791L28.6597 84.7677C26.6517 84.6553 24.8368 85.9242 24.2463 87.8471L23.0019 91.9009C22.7318 92.7821 22.8827 93.7173 23.4177 94.4676C23.9526 95.2178 24.7864 95.6669 25.7076 95.6987L58.0293 96.8234C58.0833 96.8256 58.1373 96.8263 58.1913 96.8263C59.461 96.8263 60.6833 96.3077 61.5659 95.3895C62.4856 94.4321 62.9569 93.124 62.8578 91.7996L62.6513 89.0243L62.6521 89.025ZM59.6933 93.5901C59.2775 94.0222 58.7189 94.2523 58.1203 94.2286C58.1203 94.2286 25.5774 93.0241 25.533 92.9612C25.4886 92.8983 26.7294 88.6092 26.7294 88.6092C26.9587 87.8612 27.6454 87.3581 28.42 87.3581C28.4526 87.3581 28.4851 87.3588 28.5184 87.3603L59.9138 89.0716C59.9922 89.0761 60.0566 89.139 60.0625 89.2174L60.2689 91.9927C60.3133 92.5905 60.1091 93.158 59.6933 93.5901Z" fill="#B89A0F"/>
<path fill-rule="evenodd" clip-rule="evenodd" d="M29.8502 60.6254H98.1509C98.93 60.6254 99.6373 60.2236 100.092 59.5237C100.638 58.6832 100.719 57.5808 100.303 56.647C100.302 56.6434 100.3 56.6405 100.299 56.6376L100.299 56.6374L92.1208 38.6465C90.8764 35.8505 88.4917 34.1139 85.897 34.1139H42.1034C39.5086 34.1139 37.124 35.8505 35.884 38.6368L27.6972 56.6463C27.2814 57.58 27.3628 58.6824 27.9088 59.5229C28.3638 60.2236 29.0711 60.6246 29.8502 60.6246V60.6254ZM38.2531 39.7023C39.0743 37.857 40.5497 36.7109 42.1042 36.7109H85.8977C87.4522 36.7109 88.9283 37.857 89.7532 39.7119L97.9333 57.7051C97.9837 57.8212 30.0175 57.822 30.0663 57.7117L38.2531 39.7023Z" fill="#B89A0F"/>
<path fill-rule="evenodd" clip-rule="evenodd" d="M88.218 75.5739C87.7555 74.7474 87.8192 73.7619 88.3852 73.0035L88.3859 73.0043C90.2963 70.4421 93.1885 67.2584 96.1154 66.6472L105.024 64.7872C106.814 64.4143 108.616 64.8834 109.842 66.045C111.355 67.4774 111.979 69.4736 111.696 71.9788C111.505 73.6643 110.149 74.9975 108.471 75.1499L90.5116 76.7829C90.4354 76.7895 90.3607 76.7932 90.2859 76.7932C89.4247 76.7932 88.6464 76.3397 88.218 75.5739ZM108.056 67.9294C107.447 67.3531 106.513 67.1289 105.554 67.3287H105.555L96.6467 69.1887C95.0818 69.5158 92.9569 71.3151 90.775 74.1511L108.237 72.5633C108.693 72.5219 109.063 72.1534 109.116 71.6866C109.305 70.0122 108.958 68.7833 108.056 67.9294Z" fill="#B89A0F"/>
<path fill-rule="evenodd" clip-rule="evenodd" d="M68.8175 82.2832C68.9196 82.2832 69.021 82.2788 69.1231 82.2692L76.0225 81.6381C79.2543 81.3428 81.9837 79.155 82.9759 76.0645L84.5711 71.0977C84.8581 70.2032 84.6843 69.228 84.1064 68.4881C83.5278 67.7483 82.6229 67.3443 81.6863 67.4072L68.0244 68.3269C66.5757 68.4245 65.4414 69.6379 65.4414 71.0888V78.9079C65.4414 79.8542 65.8425 80.7628 66.5409 81.3998C67.1639 81.9688 67.98 82.2817 68.8175 82.2817V82.2832ZM68.0384 71.0896C68.0384 70.9993 68.1087 70.9246 68.1982 70.9187L81.8609 69.999H81.8794C81.9526 69.999 82.014 70.0293 82.0606 70.0885C82.1117 70.1536 82.1243 70.2261 82.0999 70.3046L80.5039 75.2721C79.8306 77.3682 77.9795 78.8524 75.7865 79.0529L68.8871 79.684C68.5896 79.7114 68.3869 79.5701 68.2922 79.4843C68.1975 79.3977 68.0392 79.2083 68.0392 78.9101V71.091L68.0384 71.0896Z" fill="#B89A0F"/>
<path fill-rule="evenodd" clip-rule="evenodd" d="M99.3421 84.7684C101.35 84.6515 103.165 85.9248 103.755 87.8478V87.8493L105 91.9031C105.27 92.7835 105.119 93.7187 104.584 94.469C104.05 95.2192 103.215 95.6683 102.294 95.7001L69.9725 96.8247C69.9185 96.827 69.8645 96.8277 69.8105 96.8277C68.5401 96.8277 67.3185 96.3091 66.4359 95.3909C65.5162 94.4334 65.0449 93.1246 65.1433 91.801L65.3497 89.0257C65.4525 87.6488 66.569 86.5545 67.9474 86.4797L99.3421 84.7684ZM68.3085 93.59C68.7236 94.0228 69.2822 94.2426 69.8815 94.2285C69.8815 94.2285 102.424 93.024 102.469 92.9611C102.513 92.8982 101.272 88.6091 101.272 88.6091C101.043 87.8611 100.356 87.358 99.5818 87.358C99.5492 87.358 99.5167 87.3587 99.4834 87.3602L68.088 89.0715C68.0088 89.076 67.9452 89.1389 67.9393 89.2173L67.7329 91.9926C67.6885 92.5904 67.8927 93.1579 68.3085 93.59Z" fill="#B89A0F"/>
<path fill-rule="evenodd" clip-rule="evenodd" d="M19.045 56.1439L12.6325 55.5483L12.6317 55.5476C11.8149 55.4714 11.0661 55.0511 10.5756 54.3941C10.085 53.7363 9.89563 52.8988 10.0554 52.0946L10.2619 51.0587C10.7517 48.5957 12.9306 46.8081 15.4418 46.8081H19.7982C21.1574 46.8081 22.2635 47.9127 22.2657 49.2719C24.9293 43.8826 28.2802 37.8134 31.7872 33.2564C33.6029 30.8829 36.3516 29.5193 39.3281 29.5193H49.5851V24.8233C49.5851 22.1634 51.7492 20 54.4084 20H73.5927C76.2526 20 78.416 22.1634 78.416 24.8233V29.5193H88.673C91.6488 29.5193 94.3982 30.8829 96.2161 33.2601C99.7216 37.8149 103.073 43.8841 105.735 49.2719C105.738 47.9127 106.843 46.8081 108.202 46.8081H112.559C115.07 46.8081 117.249 48.5957 117.738 51.0595L117.944 52.0946C118.105 52.8988 117.915 53.7371 117.425 54.3941C116.934 55.0511 116.185 55.4714 115.369 55.5476L108.956 56.1432C109.847 58.1453 110.533 59.7745 110.954 60.7993C111.161 61.309 111.495 61.7271 111.95 62.0489L115.117 64.3174C116.515 65.3081 117.277 66.9995 117.098 68.7271L116.16 77.6944L117.015 103.694C117.056 104.901 116.615 106.047 115.774 106.918C114.933 107.788 113.804 108.266 112.596 108.266H103.9C101.847 108.266 100.177 106.593 100.177 104.535V101.924H27.8215V104.535C27.8215 106.593 26.1523 108.266 24.0999 108.266H15.404C14.1958 108.266 13.0675 107.788 12.2262 106.918C11.385 106.047 10.9448 104.902 10.9855 103.693L11.8393 77.6952L10.9019 68.7293C10.7236 67.0002 11.4856 65.3088 12.8892 64.3137L16.0448 62.0533C16.5057 61.7278 16.8394 61.3098 17.0436 60.8067C17.4668 59.7797 18.1534 58.1475 19.045 56.1439ZM24.1013 105.669C24.7214 105.669 25.226 105.161 25.226 104.535V101.923H18.5071C16.1432 101.923 14.181 100.157 13.9443 97.814L13.8177 96.605L13.5817 103.78C13.5654 104.281 13.7474 104.753 14.0952 105.113C14.4422 105.472 14.9076 105.669 15.4055 105.669H24.1013ZM112.596 105.669C113.095 105.669 113.56 105.472 113.907 105.113H113.907C114.254 104.753 114.436 104.281 114.419 103.781L114.184 96.6058L114.058 97.8192C113.821 100.158 111.859 101.924 109.495 101.924H102.775V104.535C102.775 105.16 103.28 105.669 103.9 105.669H112.596ZM112.559 49.4066H108.332L108.332 49.4073V53.595L115.129 52.9632C115.24 52.9528 115.306 52.8921 115.343 52.8426C115.38 52.793 115.42 52.7116 115.397 52.6021L115.192 51.567C114.943 50.3151 113.836 49.4066 112.559 49.4066ZM54.4084 22.5985C53.1809 22.5985 52.1828 23.5966 52.1828 24.824V29.5201H75.819V24.824C75.819 23.5966 74.8202 22.5985 73.5927 22.5985H54.4084ZM39.3288 32.117C37.1684 32.117 35.1707 33.1092 33.8485 34.8383H33.8493C27.2555 43.4054 21.1596 57.6318 19.4482 61.7885C19.0635 62.7392 18.4065 63.5642 17.5519 64.1694L14.3963 66.429C13.7511 66.8863 13.4041 67.6639 13.4863 68.4607L16.5272 97.5491C16.6293 98.5642 17.4801 99.3271 18.5064 99.3271H109.495C110.521 99.3271 111.372 98.565 111.474 97.5536L114.516 68.4592C114.598 67.6639 114.251 66.887 113.611 66.4327L110.444 64.1657C109.595 63.5649 108.938 62.7392 108.551 61.7826C106.842 57.6326 100.746 43.4054 94.1555 34.842C92.8311 33.1092 90.8334 32.117 88.673 32.117H39.3288ZM15.4425 49.4066C14.1662 49.4066 13.0586 50.3151 12.81 51.567V51.5663L12.6036 52.6021C12.5821 52.7109 12.6214 52.793 12.6583 52.8418C12.6953 52.8914 12.7619 52.9521 12.8729 52.9624L19.6702 53.5943V49.4066H15.4425Z" fill="#B89A0F"/>
<path fill-rule="evenodd" clip-rule="evenodd" d="M19.5304 75.15C17.8523 74.9976 16.4961 73.6643 16.3059 71.9789C16.0233 69.4744 16.647 67.4774 18.1601 66.0443C19.3861 64.8842 21.1877 64.4143 22.9782 64.7872L31.8864 66.6473C34.8126 67.2584 37.7048 70.4414 39.6159 73.0043C40.1819 73.7627 40.2463 74.7475 39.7831 75.5747C39.3547 76.3397 38.5764 76.7933 37.7151 76.7933C37.6404 76.7933 37.5657 76.7903 37.4902 76.7829L19.5304 75.15ZM21.7648 67.2577C21.0589 67.2577 20.4079 67.4922 19.9462 67.9295C19.0443 68.7833 18.6972 70.013 18.8867 71.6866C18.9392 72.1535 19.3084 72.5219 19.7656 72.5634L37.2276 74.1512C35.0457 71.3152 32.9215 69.5158 31.3559 69.1888C31.3559 69.1888 21.9882 67.2577 21.7648 67.2577Z" stroke="#262523" stroke-width="0.376477" stroke-linejoin="round" mask="url(#path-1-inside-1_2049_1147)"/>
<path fill-rule="evenodd" clip-rule="evenodd" d="M58.8787 82.2692L51.9794 81.6381V81.6395C48.7476 81.3436 46.0181 79.1557 45.026 76.066L43.4308 71.0984C43.143 70.2039 43.3168 69.2288 43.8954 68.4889C44.474 67.749 45.3781 67.3458 46.3156 67.4079L59.9775 68.3276C61.4262 68.4253 62.5604 69.6379 62.5604 71.0896V78.9086C62.5604 79.8549 62.1594 80.7635 61.4609 81.4013C60.8379 81.9703 60.0219 82.2832 59.1843 82.2832C59.0822 82.2832 58.9809 82.2788 58.8787 82.2692ZM46.1225 69.9982C46.0492 69.9982 45.9878 70.0278 45.9412 70.0878V70.0863C45.8901 70.1514 45.8776 70.2239 45.9027 70.3023L47.4986 75.2699C48.1719 77.366 50.0239 78.8502 52.2161 79.0507L59.1155 79.6818C59.4122 79.707 59.6157 79.5686 59.7104 79.482C59.8051 79.3955 59.9634 79.2061 59.9634 78.9079V71.0888C59.9634 70.9993 59.8931 70.9238 59.8029 70.9179L46.141 69.9982H46.1225Z" stroke="#262523" stroke-width="0.376477" stroke-linejoin="round" mask="url(#path-1-inside-1_2049_1147)"/>
<path fill-rule="evenodd" clip-rule="evenodd" d="M62.6521 89.025C62.5492 87.6481 61.4327 86.5538 60.0551 86.4791L28.6597 84.7677C26.6517 84.6553 24.8368 85.9242 24.2463 87.8471L23.0019 91.9009C22.7318 92.7821 22.8827 93.7173 23.4177 94.4676C23.9526 95.2178 24.7864 95.6669 25.7076 95.6987L58.0293 96.8234C58.0833 96.8256 58.1373 96.8263 58.1913 96.8263C59.461 96.8263 60.6833 96.3077 61.5659 95.3895C62.4856 94.4321 62.9569 93.124 62.8578 91.7996L62.6513 89.0243L62.6521 89.025ZM59.6933 93.5901C59.2775 94.0222 58.7189 94.2523 58.1203 94.2286C58.1203 94.2286 25.5774 93.0241 25.533 92.9612C25.4886 92.8983 26.7294 88.6092 26.7294 88.6092C26.9587 87.8612 27.6454 87.3581 28.42 87.3581C28.4526 87.3581 28.4851 87.3588 28.5184 87.3603L59.9138 89.0716C59.9922 89.0761 60.0566 89.139 60.0625 89.2174L60.2689 91.9927C60.3133 92.5905 60.1091 93.158 59.6933 93.5901Z" stroke="#262523" stroke-width="0.376477" stroke-linejoin="round" mask="url(#path-1-inside-1_2049_1147)"/>
<path fill-rule="evenodd" clip-rule="evenodd" d="M29.8502 60.6254H98.1509C98.93 60.6254 99.6373 60.2236 100.092 59.5237C100.638 58.6832 100.719 57.5808 100.303 56.647C100.302 56.6434 100.3 56.6405 100.299 56.6376L100.299 56.6374L92.1208 38.6465C90.8764 35.8505 88.4917 34.1139 85.897 34.1139H42.1034C39.5086 34.1139 37.124 35.8505 35.884 38.6368L27.6972 56.6463C27.2814 57.58 27.3628 58.6824 27.9088 59.5229C28.3638 60.2236 29.0711 60.6246 29.8502 60.6246V60.6254ZM38.2531 39.7023C39.0743 37.857 40.5497 36.7109 42.1042 36.7109H85.8977C87.4522 36.7109 88.9283 37.857 89.7532 39.7119L97.9333 57.7051C97.9837 57.8212 30.0175 57.822 30.0663 57.7117L38.2531 39.7023Z" stroke="#262523" stroke-width="0.376477" stroke-linejoin="round" mask="url(#path-1-inside-1_2049_1147)"/>
<path fill-rule="evenodd" clip-rule="evenodd" d="M88.218 75.5739C87.7555 74.7474 87.8192 73.7619 88.3852 73.0035L88.3859 73.0043C90.2963 70.4421 93.1885 67.2584 96.1154 66.6472L105.024 64.7872C106.814 64.4143 108.616 64.8834 109.842 66.045C111.355 67.4774 111.979 69.4736 111.696 71.9788C111.505 73.6643 110.149 74.9975 108.471 75.1499L90.5116 76.7829C90.4354 76.7895 90.3607 76.7932 90.2859 76.7932C89.4247 76.7932 88.6464 76.3397 88.218 75.5739ZM108.056 67.9294C107.447 67.3531 106.513 67.1289 105.554 67.3287H105.555L96.6467 69.1887C95.0818 69.5158 92.9569 71.3151 90.775 74.1511L108.237 72.5633C108.693 72.5219 109.063 72.1534 109.116 71.6866C109.305 70.0122 108.958 68.7833 108.056 67.9294Z" stroke="#262523" stroke-width="0.376477" stroke-linejoin="round" mask="url(#path-1-inside-1_2049_1147)"/>
<path fill-rule="evenodd" clip-rule="evenodd" d="M68.8175 82.2832C68.9196 82.2832 69.021 82.2788 69.1231 82.2692L76.0225 81.6381C79.2543 81.3428 81.9837 79.155 82.9759 76.0645L84.5711 71.0977C84.8581 70.2032 84.6843 69.228 84.1064 68.4881C83.5278 67.7483 82.6229 67.3443 81.6863 67.4072L68.0244 68.3269C66.5757 68.4245 65.4414 69.6379 65.4414 71.0888V78.9079C65.4414 79.8542 65.8425 80.7628 66.5409 81.3998C67.1639 81.9688 67.98 82.2817 68.8175 82.2817V82.2832ZM68.0384 71.0896C68.0384 70.9993 68.1087 70.9246 68.1982 70.9187L81.8609 69.999H81.8794C81.9526 69.999 82.014 70.0293 82.0606 70.0885C82.1117 70.1536 82.1243 70.2261 82.0999 70.3046L80.5039 75.2721C79.8306 77.3682 77.9795 78.8524 75.7865 79.0529L68.8871 79.684C68.5896 79.7114 68.3869 79.5701 68.2922 79.4843C68.1975 79.3977 68.0392 79.2083 68.0392 78.9101V71.091L68.0384 71.0896Z" stroke="#262523" stroke-width="0.376477" stroke-linejoin="round" mask="url(#path-1-inside-1_2049_1147)"/>
<path fill-rule="evenodd" clip-rule="evenodd" d="M99.3421 84.7684C101.35 84.6515 103.165 85.9248 103.755 87.8478V87.8493L105 91.9031C105.27 92.7835 105.119 93.7187 104.584 94.469C104.05 95.2192 103.215 95.6683 102.294 95.7001L69.9725 96.8247C69.9185 96.827 69.8645 96.8277 69.8105 96.8277C68.5401 96.8277 67.3185 96.3091 66.4359 95.3909C65.5162 94.4334 65.0449 93.1246 65.1433 91.801L65.3497 89.0257C65.4525 87.6488 66.569 86.5545 67.9474 86.4797L99.3421 84.7684ZM68.3085 93.59C68.7236 94.0228 69.2822 94.2426 69.8815 94.2285C69.8815 94.2285 102.424 93.024 102.469 92.9611C102.513 92.8982 101.272 88.6091 101.272 88.6091C101.043 87.8611 100.356 87.358 99.5818 87.358C99.5492 87.358 99.5167 87.3587 99.4834 87.3602L68.088 89.0715C68.0088 89.076 67.9452 89.1389 67.9393 89.2173L67.7329 91.9926C67.6885 92.5904 67.8927 93.1579 68.3085 93.59Z" stroke="#262523" stroke-width="0.376477" stroke-linejoin="round" mask="url(#path-1-inside-1_2049_1147)"/>
<path fill-rule="evenodd" clip-rule="evenodd" d="M19.045 56.1439L12.6325 55.5483L12.6317 55.5476C11.8149 55.4714 11.0661 55.0511 10.5756 54.3941C10.085 53.7363 9.89563 52.8988 10.0554 52.0946L10.2619 51.0587C10.7517 48.5957 12.9306 46.8081 15.4418 46.8081H19.7982C21.1574 46.8081 22.2635 47.9127 22.2657 49.2719C24.9293 43.8826 28.2802 37.8134 31.7872 33.2564C33.6029 30.8829 36.3516 29.5193 39.3281 29.5193H49.5851V24.8233C49.5851 22.1634 51.7492 20 54.4084 20H73.5927C76.2526 20 78.416 22.1634 78.416 24.8233V29.5193H88.673C91.6488 29.5193 94.3982 30.8829 96.2161 33.2601C99.7216 37.8149 103.073 43.8841 105.735 49.2719C105.738 47.9127 106.843 46.8081 108.202 46.8081H112.559C115.07 46.8081 117.249 48.5957 117.738 51.0595L117.944 52.0946C118.105 52.8988 117.915 53.7371 117.425 54.3941C116.934 55.0511 116.185 55.4714 115.369 55.5476L108.956 56.1432C109.847 58.1453 110.533 59.7745 110.954 60.7993C111.161 61.309 111.495 61.7271 111.95 62.0489L115.117 64.3174C116.515 65.3081 117.277 66.9995 117.098 68.7271L116.16 77.6944L117.015 103.694C117.056 104.901 116.615 106.047 115.774 106.918C114.933 107.788 113.804 108.266 112.596 108.266H103.9C101.847 108.266 100.177 106.593 100.177 104.535V101.924H27.8215V104.535C27.8215 106.593 26.1523 108.266 24.0999 108.266H15.404C14.1958 108.266 13.0675 107.788 12.2262 106.918C11.385 106.047 10.9448 104.902 10.9855 103.693L11.8393 77.6952L10.9019 68.7293C10.7236 67.0002 11.4856 65.3088 12.8892 64.3137L16.0448 62.0533C16.5057 61.7278 16.8394 61.3098 17.0436 60.8067C17.4668 59.7797 18.1534 58.1475 19.045 56.1439ZM24.1013 105.669C24.7214 105.669 25.226 105.161 25.226 104.535V101.923H18.5071C16.1432 101.923 14.181 100.157 13.9443 97.814L13.8177 96.605L13.5817 103.78C13.5654 104.281 13.7474 104.753 14.0952 105.113C14.4422 105.472 14.9076 105.669 15.4055 105.669H24.1013ZM112.596 105.669C113.095 105.669 113.56 105.472 113.907 105.113H113.907C114.254 104.753 114.436 104.281 114.419 103.781L114.184 96.6058L114.058 97.8192C113.821 100.158 111.859 101.924 109.495 101.924H102.775V104.535C102.775 105.16 103.28 105.669 103.9 105.669H112.596ZM112.559 49.4066H108.332L108.332 49.4073V53.595L115.129 52.9632C115.24 52.9528 115.306 52.8921 115.343 52.8426C115.38 52.793 115.42 52.7116 115.397 52.6021L115.192 51.567C114.943 50.3151 113.836 49.4066 112.559 49.4066ZM54.4084 22.5985C53.1809 22.5985 52.1828 23.5966 52.1828 24.824V29.5201H75.819V24.824C75.819 23.5966 74.8202 22.5985 73.5927 22.5985H54.4084ZM39.3288 32.117C37.1684 32.117 35.1707 33.1092 33.8485 34.8383H33.8493C27.2555 43.4054 21.1596 57.6318 19.4482 61.7885C19.0635 62.7392 18.4065 63.5642 17.5519 64.1694L14.3963 66.429C13.7511 66.8863 13.4041 67.6639 13.4863 68.4607L16.5272 97.5491C16.6293 98.5642 17.4801 99.3271 18.5064 99.3271H109.495C110.521 99.3271 111.372 98.565 111.474 97.5536L114.516 68.4592C114.598 67.6639 114.251 66.887 113.611 66.4327L110.444 64.1657C109.595 63.5649 108.938 62.7392 108.551 61.7826C106.842 57.6326 100.746 43.4054 94.1555 34.842C92.8311 33.1092 90.8334 32.117 88.673 32.117H39.3288ZM15.4425 49.4066C14.1662 49.4066 13.0586 50.3151 12.81 51.567V51.5663L12.6036 52.6021C12.5821 52.7109 12.6214 52.793 12.6583 52.8418C12.6953 52.8914 12.7619 52.9521 12.8729 52.9624L19.6702 53.5943V49.4066H15.4425Z" stroke="#262523" stroke-width="0.376477" stroke-linejoin="round" mask="url(#path-1-inside-1_2049_1147)"/>
</svg>
