<svg width="193" height="48" viewBox="0 0 193 48" fill="none" xmlns="http://www.w3.org/2000/svg">
<path fill-rule="evenodd" clip-rule="evenodd" d="M19.1007 28.1067C21.6155 28.1067 23.728 29.9173 24.1304 32.231H29.3612L34.089 11.8107H11.1539C10.651 11.8107 10.2486 11.4083 10.2486 10.9053C10.2486 10.4024 10.651 10 11.1539 10H35.2961H35.3967H35.4973C35.5979 10 35.5979 10 35.6985 10.1006C35.7991 10.2012 35.8997 10.2012 36.0003 10.3018V10.4024C36.0003 10.4024 36.0003 10.4024 36.0003 10.503V10.6036C36.0003 10.7041 36.0003 10.8047 36.0003 10.9053V11.0059V11.1065L34.8938 16.0356H40.7281C41.3317 16.0356 42.0358 16.0356 42.74 16.1361C47.4678 16.9409 50.6868 21.4676 49.7815 26.296C49.3791 28.6096 49.0773 31.1244 48.5743 33.3375V33.4381C48.4738 33.7398 48.0714 34.0416 47.669 34.0416H46.0595C45.6572 36.4558 43.5447 38.1659 41.0299 38.1659C38.5151 38.1659 36.4026 36.3552 36.0003 34.0416H23.9292C23.5268 36.4558 21.4144 38.1659 18.8995 38.1659C16.3847 38.1659 14.2723 36.3552 13.8699 34.0416H10.8521C10.3492 34.0416 9.94681 33.6392 9.94681 33.1363C9.94681 32.6333 10.3492 32.231 10.8521 32.231H13.8699C14.2723 29.8167 16.3847 28.1067 18.8995 28.1067H19.1007ZM46.1601 32.231H46.9649L48.0714 25.793C48.172 25.4913 48.172 25.0889 48.172 24.7871C48.172 20.9646 45.0536 17.9468 41.3317 17.9468H34.592L31.2724 32.231H36.2015C36.6038 29.8167 38.7163 28.1067 41.2311 28.1067C43.7459 28.1067 45.8583 29.9173 46.2607 32.231H46.1601ZM41.1305 29.9173C42.9412 29.9173 44.3495 31.3256 44.3495 33.1363C44.3495 34.9469 42.9412 36.3552 41.1305 36.3552C39.3198 36.3552 37.9115 34.9469 37.9115 33.1363C37.9115 31.3256 39.3198 29.9173 41.1305 29.9173ZM15.1776 26.1954C15.6806 26.1954 16.083 26.5978 16.083 27.1007C16.083 27.6037 15.6806 28.0061 15.1776 28.0061H2.90533C2.40237 28.0061 2 27.6037 2 27.1007C2 26.5978 2.40237 26.1954 2.90533 26.1954H15.1776ZM15.1776 20.0593C15.6806 20.0593 16.083 20.4616 16.083 20.9646C16.083 21.4675 15.6806 21.8699 15.1776 21.8699H4.91718C4.41422 21.8699 4.01185 21.4675 4.01185 20.9646C4.01185 20.4616 4.41422 20.0593 4.91718 20.0593H15.1776ZM6.92903 15.7338C6.42607 15.7338 6.0237 15.3314 6.0237 14.8284C6.0237 14.3255 6.42607 13.9231 6.92903 13.9231H15.1776C15.6806 13.9231 16.083 14.3255 16.083 14.8284C16.083 15.3314 15.6806 15.7338 15.1776 15.7338C12.4616 15.7338 9.64503 15.7338 6.92903 15.7338ZM19.1007 29.9173C20.9114 29.9173 22.3197 31.3256 22.3197 33.1363C22.3197 34.9469 20.9114 36.3552 19.1007 36.3552C17.2901 36.3552 15.8818 34.9469 15.8818 33.1363C15.8818 31.3256 17.2901 29.9173 19.1007 29.9173Z" fill="white"/>
<path d="M60.96 31.368L70.128 19.056H61.2V17.424H72.816V19.056L63.648 31.368H72.96V33H60.96V31.368ZM79.3699 33.24C78.2659 33.24 77.4099 33.136 76.8019 32.928C76.2099 32.72 75.7779 32.352 75.5059 31.824C75.2499 31.296 75.1219 30.536 75.1219 29.544C75.1219 28.664 75.2419 27.984 75.4819 27.504C75.7379 27.008 76.1619 26.656 76.7539 26.448C77.3619 26.24 78.2179 26.136 79.3219 26.136H82.8019V24.288C82.8019 23.856 82.7139 23.528 82.5379 23.304C82.3779 23.064 82.0979 22.896 81.6979 22.8C81.3139 22.704 80.7459 22.656 79.9939 22.656C78.7939 22.656 77.4659 22.752 76.0099 22.944V21.36C77.5939 21.216 79.0259 21.144 80.3059 21.144C81.6499 21.144 82.6419 21.248 83.2819 21.456C83.9219 21.648 84.3619 21.992 84.6019 22.488C84.8419 22.984 84.9619 23.752 84.9619 24.792V33H82.8739V31.896C82.6979 32.792 81.5299 33.24 79.3699 33.24ZM79.7299 31.824C80.5139 31.824 81.1779 31.768 81.7219 31.656C82.4419 31.512 82.8019 31.176 82.8019 30.648V27.48H79.4659C78.7779 27.48 78.2819 27.536 77.9779 27.648C77.6739 27.744 77.4739 27.936 77.3779 28.224C77.2819 28.512 77.2339 28.976 77.2339 29.616C77.2339 30.192 77.2899 30.64 77.4019 30.96C77.5139 31.264 77.7139 31.488 78.0019 31.632C78.2899 31.76 78.7219 31.824 79.2979 31.824H79.7299ZM87.1239 21.384H89.4999L92.3319 30.936H92.4759L95.2119 21.384H97.6359L100.468 30.936H100.612L103.348 21.384H105.556L101.74 33H99.1719L96.3639 23.616L93.6039 33H91.0359L87.1239 21.384ZM107.716 17.184H109.876V19.44H107.716V17.184ZM107.716 21.384H109.876V33H107.716V21.384ZM118.518 33.24C114.966 33.24 113.19 32.056 113.19 29.688V25.104C113.19 23.696 113.59 22.688 114.39 22.08C115.206 21.456 116.518 21.144 118.326 21.144C120.038 21.144 121.27 21.44 122.022 22.032C122.79 22.624 123.174 23.648 123.174 25.104V27.672H115.374V29.424C115.374 30.224 115.654 30.8 116.214 31.152C116.774 31.504 117.638 31.68 118.806 31.68C119.91 31.68 121.214 31.488 122.718 31.104V32.76C121.246 33.08 119.846 33.24 118.518 33.24ZM121.014 26.256V24.432C121.014 23.728 120.798 23.248 120.366 22.992C119.95 22.72 119.23 22.584 118.206 22.584C117.214 22.584 116.494 22.72 116.046 22.992C115.598 23.248 115.374 23.728 115.374 24.432V26.256H121.014ZM125.554 31.536L132.082 22.848H125.794V21.384H134.53V22.848L128.002 31.536H134.674V33H125.554V31.536ZM137.364 17.184H139.524V19.44H137.364V17.184ZM137.364 21.384H139.524V33H137.364V21.384ZM148.166 33.24C144.614 33.24 142.838 32.056 142.838 29.688V25.104C142.838 23.696 143.238 22.688 144.038 22.08C144.854 21.456 146.166 21.144 147.974 21.144C149.686 21.144 150.918 21.44 151.67 22.032C152.438 22.624 152.822 23.648 152.822 25.104V27.672H145.022V29.424C145.022 30.224 145.302 30.8 145.862 31.152C146.422 31.504 147.286 31.68 148.454 31.68C149.558 31.68 150.862 31.488 152.366 31.104V32.76C150.894 33.08 149.494 33.24 148.166 33.24ZM150.662 26.256V24.432C150.662 23.728 150.446 23.248 150.014 22.992C149.598 22.72 148.878 22.584 147.854 22.584C146.862 22.584 146.142 22.72 145.694 22.992C145.246 23.248 145.022 23.728 145.022 24.432V26.256H150.662ZM156.258 17.424H159.738L164.73 30.384L164.802 30.408L169.53 17.424H172.89V33H170.85V19.824H170.73L165.714 33H163.626L158.466 19.824H158.346V33H156.258V17.424ZM179.546 33.168L175.058 21.384H177.41L180.65 30.864H180.698L183.626 21.384H185.81L179.978 37.992H177.722L179.546 33.168Z" fill="white"/>
</svg>
