<svg width="20" height="18" viewBox="0 0 20 18" fill="none" xmlns="http://www.w3.org/2000/svg">
<path d="M6 9.99997L9 7.99997L11 9.99997L14 7.99997M1 17L2.3 13.1C1.17644 11.4382 0.769993 9.47037 1.15622 7.56226C1.54244 5.65415 2.69506 3.93563 4.39977 2.72623C6.10447 1.51683 8.24526 0.898855 10.4241 0.987197C12.6029 1.07554 14.6715 1.86419 16.2453 3.20652C17.819 4.54884 18.7909 6.3535 18.9801 8.28494C19.1693 10.2164 18.563 12.1432 17.2739 13.7071C15.9848 15.271 14.1007 16.3656 11.9718 16.7873C9.84293 17.2091 7.6142 16.9293 5.7 16L1 17Z" stroke="#22211F" stroke-width="1.5" stroke-linecap="round" stroke-linejoin="round"/>
</svg>
