<svg width="24" height="18" viewBox="0 0 24 18" fill="none" xmlns="http://www.w3.org/2000/svg">
<path d="M18.5075 18C15.3433 18 13.0149 15.6527 13.0149 12.0416C13.0149 7.64802 14.9851 3.13407 18.2687 0.666444C20.4776 -0.958577 22.6269 0.606256 20.8358 3.0137C19.7612 4.39797 19.2836 5.78225 19.0448 7.16653C22.0299 7.40727 24 9.57397 24 12.5833C24 15.7129 21.791 18 18.5075 18ZM5.55224 18C2.32836 18 0 15.6527 0 12.0416C0 7.64802 1.97015 3.13407 5.31343 0.666444C7.52239 -0.958577 9.61194 0.606256 7.8209 3.0137C6.80597 4.39797 6.26866 5.78225 6.08955 7.16653C9.07463 7.40727 11.0448 9.57397 11.0448 12.5833C11.0448 15.7129 8.83582 18 5.55224 18Z" fill="#F8CE08"/>
</svg>
